<svg width="200" height="34" viewBox="0 0 200 34" fill="none" xmlns="http://www.w3.org/2000/svg">
<path d="M50 8.56664H57.0635C58.0716 8.56664 59.0014 8.77744 59.85 9.2004C60.7 9.62336 61.3676 10.2 61.8554 10.9276C62.3432 11.6552 62.5878 12.4508 62.5878 13.313C62.5878 14.227 62.3649 15.0185 61.9189 15.6876C61.473 16.3554 60.8892 16.8681 60.1662 17.223V17.427C61.1081 17.7643 61.8554 18.3015 62.4108 19.0386C62.9649 19.7744 63.2432 20.6584 63.2432 21.6906C63.2432 22.6902 62.9784 23.5742 62.4487 24.344C61.9088 25.1228 61.167 25.7376 60.3041 26.1215C59.4054 26.5363 58.4081 26.743 57.3149 26.743H50V8.56664ZM56.8108 15.9786C57.5514 15.9786 58.1432 15.7719 58.5892 15.3571C59.0351 14.9423 59.2581 14.4214 59.2581 13.7958C59.2581 13.1866 59.0432 12.6752 58.6149 12.259C58.1851 11.8456 57.6176 11.6375 56.9122 11.6375H53.4054V15.9786H56.8108V15.9786ZM57.1892 23.6205C58.0135 23.6205 58.6568 23.4042 59.1189 22.9731C59.5811 22.542 59.8122 21.979 59.8122 21.2854C59.8122 20.5918 59.577 20.0246 59.1068 19.584C58.6351 19.1434 57.9622 18.9244 57.0878 18.9244H53.4054V23.6205H57.1892V23.6205ZM74.6581 27.1497C72.8919 27.1497 71.2905 26.7308 69.8527 25.893C68.4341 25.0749 67.2617 23.886 66.4595 22.4522C65.6351 20.997 65.223 19.3977 65.223 17.6542C65.223 15.912 65.6351 14.3126 66.4595 12.8561C67.2615 11.423 68.4334 10.2346 69.8513 9.41664C71.2919 8.57888 72.8919 8.16 74.6595 8.16C76.4243 8.16 78.027 8.57888 79.4649 9.41664C80.883 10.235 82.0549 11.4238 82.8568 12.8574C83.6811 14.3126 84.0932 15.912 84.0932 17.6542C84.0932 19.3977 83.6811 20.997 82.8568 22.4522C82.0549 23.8859 80.883 25.0747 79.4649 25.893C78.027 26.7308 76.4243 27.1497 74.6595 27.1497H74.6581ZM74.6581 23.8993C75.726 23.9102 76.7781 23.6392 77.7095 23.1132C78.6272 22.596 79.3831 21.831 79.8919 20.9046C80.4216 19.9566 80.6865 18.8727 80.6865 17.6542C80.6865 16.4356 80.4216 15.353 79.8919 14.4051C79.3831 13.4786 78.6272 12.7137 77.7095 12.1965C76.7782 11.67 75.7261 11.3985 74.6581 11.409C73.5933 11.3972 72.5444 11.6689 71.6176 12.1965C70.7056 12.7167 69.9548 13.4813 69.4486 14.4051C68.9189 15.353 68.6541 16.4356 68.6541 17.6555C68.6541 18.8727 68.9189 19.9566 69.4486 20.9046C69.9548 21.8284 70.7056 22.593 71.6176 23.1132C72.5445 23.6403 73.5935 23.9115 74.6581 23.8993V23.8993ZM95.4054 27.1497C93.6392 27.1497 92.0378 26.7308 90.6 25.893C89.1819 25.0747 88.0099 23.8859 87.2081 22.4522C86.3838 20.997 85.9716 19.3977 85.9716 17.6542C85.9716 15.912 86.3838 14.3126 87.2068 12.8561C88.0092 11.4228 89.1816 10.2344 90.6 9.41664C92.0378 8.57888 93.6405 8.16 95.4054 8.16C97.1716 8.16 98.773 8.57888 100.211 9.41664C101.629 10.235 102.801 11.4238 103.603 12.8574C104.427 14.3126 104.839 15.912 104.839 17.6542C104.839 19.3977 104.427 20.997 103.604 22.4522C102.802 23.886 101.629 25.0749 100.211 25.893C98.773 26.7308 97.1703 27.1497 95.4054 27.1497V27.1497ZM95.4054 23.8993C96.4738 23.9105 97.5264 23.6394 98.4581 23.1132C99.3754 22.5958 100.131 21.8309 100.639 20.9046C101.169 19.9566 101.434 18.8727 101.434 17.6542C101.434 16.4356 101.169 15.353 100.639 14.4051C100.131 13.4788 99.3754 12.7139 98.4581 12.1965C97.5265 11.6698 96.4739 11.3983 95.4054 11.409C94.3406 11.3972 93.2917 11.6689 92.3649 12.1965C91.4529 12.7167 90.7021 13.4813 90.1959 14.4051C89.6662 15.353 89.4013 16.4356 89.4013 17.6555C89.4013 18.8727 89.6662 19.9566 90.1959 20.9046C90.7025 21.8286 91.4537 22.5932 92.3662 23.1132C93.2928 23.6401 94.3412 23.9113 95.4054 23.8993V23.8993ZM107.878 8.568H111.284V16.3608H111.486L118.095 8.568H122.207V8.77064L115.676 16.2833L122.889 26.5404V26.743H118.727L113.33 19.0006L111.286 21.4118V26.743H107.881V8.56664L107.878 8.568ZM126.728 8.16H131.118L135.909 20.9304H136.112L140.903 8.16H145.318V26.3364H141.938V17.3754L142.141 14.3548H141.938L137.346 26.3364H134.697L130.081 14.3548H129.88L130.082 17.3754V26.3378H126.727V8.16H126.728ZM154.836 8.16H158.747L165.532 26.3364H161.774L160.261 21.9953H153.349L151.835 26.3364H148.077L154.836 8.16ZM159.151 18.8482L157.562 14.2786L156.905 12.0945H156.704L156.049 14.2786L154.434 18.8482H159.15H159.151ZM168.315 8.16H174.899C176.076 8.16 177.123 8.4048 178.039 8.89576C178.955 9.38672 179.666 10.0681 180.17 10.9398C180.676 11.8102 180.927 12.7976 180.927 13.8978C180.927 15.0647 180.562 16.101 179.83 17.0068C179.107 17.9064 178.151 18.5874 177.068 18.9747L177.043 19.1515L181.886 26.1338V26.3378H177.976L173.309 19.5078H171.72V26.3364H168.315V8.16ZM174.873 16.3608C175.647 16.3608 176.278 16.1228 176.765 15.6495C177.253 15.1749 177.497 14.5751 177.497 13.8462C177.497 13.1526 177.265 12.561 176.803 12.07C176.341 11.579 175.714 11.3329 174.924 11.3329H171.72V16.3594H174.873V16.3608ZM184.643 8.16H188.049V15.9528H188.251L194.859 8.16H198.972V8.364L192.438 15.878L199.654 26.1338V26.3378H195.492L190.092 18.5939L188.049 21.0052V26.3364H184.643V8.16V8.16Z" fill="white"/>
<path d="M16.8919 34C26.221 34 33.7838 26.3888 33.7838 17C33.7838 7.61116 26.221 0 16.8919 0C7.56276 0 0 7.61116 0 17C0 26.3888 7.56276 34 16.8919 34Z" fill="white"/>
<path fill-rule="evenodd" clip-rule="evenodd" d="M12.1622 12.24V25.84L16.946 21.1616L21.727 25.84V12.24C21.727 11.5186 21.4423 10.8268 20.9354 10.3167C20.4286 9.80657 19.7411 9.52 19.0243 9.52H14.8649C14.1481 9.52 13.4606 9.80657 12.9538 10.3167C12.4469 10.8268 12.1622 11.5186 12.1622 12.24Z" fill="#242A45"/>
</svg>
