<svg width="912" height="979" viewBox="0 0 912 979" fill="none" xmlns="http://www.w3.org/2000/svg">
<g opacity="0.099">
<path d="M442.551 971.078L18.6403 695.898C5.14439 687.561 -6.42366 673.904 6.72575 664.945L432.146 395.63C438.523 391.285 448.213 388.434 454.713 392.588L899.634 676.267C913.131 684.874 915.552 708.849 902.107 717.538L498.414 970.643C489.941 976.042 480.332 978.922 470.535 978.998C460.738 979.075 451.092 976.345 442.551 971.078V971.078Z" fill="#6862E6"/>
<path d="M442.551 581.55L18.6403 306.37C5.14439 298.034 -6.42366 284.376 6.72575 275.417L432.146 6.10194C438.523 1.75704 448.213 -1.09397 454.713 3.0603L899.634 286.739C913.131 295.346 915.552 319.321 902.107 328.01L498.414 581.115C489.941 586.514 480.332 589.394 470.535 589.471C460.738 589.547 451.092 586.817 442.551 581.55V581.55Z" stroke="#1E1F36"/>
<path d="M442.551 659.248L18.6403 384.068C5.14439 375.732 -6.42366 362.075 6.72575 353.115L432.146 83.8004C438.523 79.4555 448.213 76.6045 454.713 80.7587L899.634 364.438C913.131 373.045 915.552 397.019 902.107 405.708L498.414 658.813C489.941 664.212 480.332 667.093 470.535 667.169C460.738 667.245 451.092 664.515 442.551 659.248V659.248Z" stroke="#1E1F36"/>
</g>
<path d="M438.186 809.987L18.5191 566.435C5.15772 559.056 -6.29354 546.968 6.72404 539.039L427.884 300.676C434.197 296.831 443.79 294.308 450.225 297.984L890.693 549.059C904.052 556.677 906.452 577.897 893.138 585.587L493.492 809.603C485.104 814.382 475.591 816.931 465.892 816.999C456.192 817.066 446.643 814.649 438.187 809.987H438.186Z" fill="#5B36A0"/>
<path d="M438.186 798.746L18.5191 555.193C5.15772 547.815 -6.29354 535.726 6.72404 527.797L427.884 289.435C434.197 285.59 443.79 283.066 450.225 286.742L890.693 537.817C904.052 545.435 906.452 566.656 893.138 574.345L493.492 798.362C485.104 803.141 475.591 805.69 465.892 805.757C456.192 805.824 446.643 803.408 438.187 798.746H438.186Z" fill="#6862E6"/>
<path style="mix-blend-mode:multiply" opacity="0.25" d="M472.788 477.405L389.978 523.809C389.978 523.809 517.542 600.251 543.627 611.017L591.319 543.73" fill="url(#paint0_linear)"/>
<path style="mix-blend-mode:multiply" opacity="0.25" d="M444.181 700.026L361.348 653.72L278.517 700.123C278.517 700.123 321.658 725.979 362.89 749.723C389.074 731.53 415.281 713.149 444.181 700.026V700.026Z" fill="url(#paint1_linear)"/>
<path style="mix-blend-mode:multiply" opacity="0.46" d="M265.719 414.059L213.181 443.497C213.181 443.497 217.634 470.484 243.72 481.25L312.504 437.994" fill="url(#paint2_linear)"/>
<path d="M291.437 443.497C308.939 443.497 323.127 433.685 323.127 421.581C323.127 409.478 308.939 399.666 291.437 399.666C273.936 399.666 259.748 409.478 259.748 421.581C259.748 433.685 273.936 443.497 291.437 443.497Z" fill="#68E1FD"/>
<path d="M291.413 418.192C304.521 418.192 315.148 413.921 315.148 408.652C315.148 403.383 304.521 399.111 291.413 399.111C278.304 399.111 267.677 403.383 267.677 408.652C267.677 413.921 278.304 418.192 291.413 418.192Z" fill="#974C26"/>
<path d="M290.555 392.743C290.555 388.441 290.41 384.141 290.066 379.839C289.969 378.717 289.863 377.604 289.749 376.499L289.504 374.312C289.504 373.662 289.161 371.908 289.161 372.077C289.013 371.196 288.859 370.323 288.696 369.458C286.108 354.857 280.332 340.978 271.763 328.773C268.539 336.308 266.931 344.414 267.039 352.586C267.039 354.992 267.236 357.394 267.431 359.653V361.072C267.628 362.224 267.847 363.473 268.092 364.53C269.025 368.914 270.276 373.227 271.836 377.436C273.238 381.31 274.948 385.071 276.951 388.683C279.11 392.748 281.453 396.717 283.973 400.578C285.79 403.396 287.691 406.161 289.674 408.869C290.263 403.51 290.532 398.126 290.555 392.743V392.743ZM278.101 344.368C278.226 343.815 278.226 343.241 278.101 342.688C278.704 343.295 279.3 343.921 279.887 344.561C279.299 344.397 278.686 344.332 278.076 344.368H278.101Z" fill="#999A1C"/>
<path d="M298.704 396.059C301.13 392.469 303.36 388.755 305.385 384.934C305.924 383.941 306.445 382.948 306.952 381.955L307.954 379.959L308.909 377.893L309.96 375.489C315.826 361.816 318.606 347.059 318.109 332.233C311.229 336.862 305.398 342.834 300.981 349.776C299.712 351.778 298.528 353.831 297.431 355.929L296.942 356.817L296.82 357.203C296.356 358.284 295.89 359.365 295.451 360.47C293.827 364.658 292.51 368.955 291.51 373.327C290.558 377.333 289.928 381.407 289.627 385.511C289.194 390.072 288.982 394.65 288.991 399.231C288.991 402.812 288.991 406.081 289.21 409.229C292.465 404.976 295.743 400.601 298.704 396.059V396.059ZM314.856 348.743C315.238 348.32 315.522 347.82 315.687 347.276C315.866 348.11 316.021 348.912 316.153 349.68C315.771 349.305 315.331 348.991 314.854 348.743H314.856Z" fill="#999A1C"/>
<path d="M298.534 406.778C301.024 405.562 303.473 404.263 305.874 402.885L307.708 401.779L308.909 401.034L310.084 400.217L311.454 399.231C319.105 393.715 325.449 386.64 330.051 378.492C324.827 378.822 319.729 380.205 315.075 382.554C313.729 383.229 312.432 383.973 311.135 384.741L310.573 385.078L310.376 385.247L308.566 386.567C306.31 388.315 304.184 390.218 302.205 392.263C300.375 394.125 298.697 396.126 297.187 398.246C295.488 400.604 293.856 403.008 292.293 405.455C291.185 407.25 290.132 409.078 289.136 410.935C292.293 409.637 295.451 408.292 298.534 406.776V406.778ZM322.808 386.352C323.154 386.245 323.472 386.064 323.738 385.822C323.558 386.335 323.363 386.839 323.15 387.336C323.086 387 322.971 386.676 322.808 386.374V386.352ZM290.555 392.743C290.555 388.441 290.41 384.141 290.066 379.839C289.969 378.717 289.863 377.604 289.749 376.499L289.504 374.312C289.504 373.662 289.161 371.908 289.161 372.077C289.013 371.196 288.859 370.323 288.696 369.458C286.108 354.857 280.332 340.978 271.763 328.773C268.539 336.308 266.931 344.414 267.039 352.586C267.039 354.992 267.236 357.394 267.431 359.653V361.072C267.628 362.224 267.847 363.473 268.092 364.53C269.025 368.914 270.276 373.227 271.836 377.436C273.238 381.31 274.948 385.071 276.951 388.683C279.11 392.748 281.453 396.717 283.973 400.578C285.79 403.396 287.691 406.161 289.674 408.869C290.263 403.51 290.532 398.126 290.555 392.743V392.743ZM278.101 344.368C278.226 343.815 278.226 343.241 278.101 342.688C278.704 343.295 279.3 343.921 279.887 344.561C279.299 344.397 278.686 344.332 278.076 344.368H278.101Z" fill="#999A1C"/>
<path d="M298.704 396.059C301.13 392.469 303.36 388.755 305.385 384.934C305.924 383.941 306.445 382.948 306.952 381.955L307.954 379.959L308.909 377.893L309.96 375.489C315.826 361.816 318.606 347.059 318.109 332.233C311.229 336.862 305.398 342.834 300.981 349.776C299.712 351.778 298.528 353.831 297.431 355.929L296.942 356.817L296.82 357.203C296.356 358.284 295.89 359.365 295.451 360.47C293.827 364.658 292.51 368.955 291.51 373.327C290.558 377.333 289.928 381.407 289.627 385.511C289.194 390.072 288.982 394.65 288.991 399.231C288.991 402.812 288.991 406.081 289.21 409.229C292.465 404.976 295.743 400.601 298.704 396.059V396.059ZM314.856 348.743C315.238 348.32 315.522 347.82 315.687 347.276C315.866 348.11 316.021 348.912 316.153 349.68C315.771 349.305 315.331 348.991 314.854 348.743H314.856Z" fill="#999A1C"/>
<path d="M298.534 406.778C301.024 405.562 303.473 404.263 305.874 402.885L307.708 401.779L308.909 401.034L310.084 400.217L311.454 399.231C319.105 393.715 325.449 386.64 330.051 378.492C324.827 378.822 319.729 380.205 315.075 382.554C313.729 383.229 312.432 383.973 311.135 384.741L310.573 385.078L310.376 385.247L308.566 386.567C306.31 388.315 304.184 390.218 302.205 392.263C300.375 394.125 298.697 396.126 297.187 398.246C295.488 400.604 293.856 403.008 292.293 405.455C291.185 407.25 290.132 409.078 289.136 410.936C292.293 409.637 295.451 408.292 298.534 406.776V406.778ZM322.808 386.352C323.154 386.245 323.472 386.064 323.738 385.822C323.558 386.335 323.363 386.839 323.149 387.336C323.086 387 322.971 386.676 322.808 386.374V386.352Z" fill="#999A1C"/>
<path d="M505.675 459.286L459.843 480.912C458.115 481.729 456.647 482.991 455.595 484.564C454.543 486.136 453.948 487.96 453.872 489.839C453.797 491.719 454.245 493.583 455.167 495.232C456.09 496.88 457.452 498.252 459.109 499.199L567.733 561.44C570.081 562.787 572.869 563.192 575.514 562.57C578.159 561.947 580.456 560.346 581.925 558.101L608.329 517.776" fill="#A1482D"/>
<path d="M754.955 354.967L389.489 148.156C386.982 146.74 384.14 145.997 381.248 146C378.355 146.003 375.515 146.753 373.012 148.175C370.507 149.598 368.427 151.641 366.982 154.101C365.536 156.561 364.775 159.35 364.775 162.189V377.34C364.775 379.701 365.408 382.021 366.61 384.067C367.813 386.112 369.543 387.811 371.627 388.994L761.243 609.863C762.587 610.628 764.113 611.031 765.666 611.032C767.22 611.033 768.746 610.631 770.091 609.868C771.436 609.105 772.553 608.007 773.328 606.685C774.104 605.364 774.51 603.865 774.507 602.34V388.081C774.503 381.363 772.693 374.765 769.261 368.951C765.828 363.138 760.894 358.314 754.955 354.967V354.967Z" fill="#F47B56"/>
<path d="M389.513 164.426L743.943 364.676C747.728 366.819 750.872 369.901 753.058 373.612C755.244 377.324 756.396 381.535 756.397 385.822V547.094C756.395 548.636 755.98 550.151 755.195 551.488C754.409 552.824 753.28 553.935 751.92 554.71C750.56 555.483 749.017 555.892 747.446 555.897C745.874 555.902 744.329 555.501 742.965 554.736L381.512 351.145C380.159 350.383 379.034 349.284 378.252 347.959C377.471 346.635 377.059 345.131 377.059 343.6V171.514C377.059 168.601 378.639 165.908 381.206 164.447C382.468 163.729 383.899 163.349 385.358 163.345C386.816 163.341 388.25 163.714 389.515 164.426H389.513Z" fill="white"/>
<path d="M538.645 468.61C542.826 467.82 545.469 463.377 544.548 458.686C543.627 453.994 539.491 450.831 535.31 451.621C531.129 452.411 528.487 456.854 529.408 461.545C530.329 466.237 534.465 469.4 538.645 468.61Z" fill="#AB643C"/>
<path opacity="0.32" d="M484.778 383.227L649.489 480.408L730.851 433.956L585.472 350.857" fill="url(#paint3_linear)"/>
<path d="M688.322 363.882L510.251 257.255C509.298 256.714 508.214 256.434 507.113 256.443C506.012 256.452 504.933 256.751 503.99 257.308C503.045 257.865 502.27 258.66 501.744 259.61C501.219 260.56 500.962 261.631 501 262.711V323.465C500.993 324.563 501.275 325.645 501.82 326.605C502.364 327.565 503.153 328.37 504.108 328.943L682.156 433.31C684.06 434.372 686.396 434.359 688.287 433.272C689.217 432.739 689.988 431.975 690.522 431.058C691.056 430.141 691.336 429.102 691.332 428.045L692.262 371.406C692.331 369.924 692.003 368.45 691.312 367.131C690.621 365.811 689.59 364.692 688.322 363.884V363.882Z" fill="#E2AC00"/>
<path d="M645.72 395.147C652.105 403.917 663.337 406.37 670.777 400.649C678.215 394.929 679.073 383.18 672.687 374.432C666.298 365.684 655.066 363.209 647.626 368.929C640.188 374.648 639.332 386.374 645.72 395.147V395.147Z" fill="white"/>
<path d="M628.248 353.045L555.619 310.102C554.995 309.815 554.285 309.768 553.627 309.968C552.969 310.168 552.411 310.602 552.062 311.185C551.713 311.768 551.598 312.458 551.74 313.12C551.882 313.782 552.271 314.368 552.83 314.764L625.457 357.707C626.081 357.993 626.792 358.041 627.449 357.841C628.107 357.64 628.665 357.206 629.014 356.624C629.363 356.041 629.478 355.351 629.337 354.689C629.195 354.027 628.807 353.441 628.248 353.045V353.045ZM625.262 370.492L525.152 311.303C524.539 311.097 523.871 311.108 523.266 311.334C522.66 311.561 522.154 311.989 521.837 312.543C521.52 313.098 521.411 313.744 521.53 314.369C521.648 314.994 521.986 315.559 522.486 315.965L622.472 375.176C623.096 375.463 623.806 375.511 624.464 375.31C625.122 375.11 625.68 374.676 626.028 374.093C626.378 373.51 626.493 372.82 626.351 372.158C626.209 371.497 625.821 370.91 625.262 370.514V370.49V370.492Z" fill="#F2F2F2"/>
<path d="M652.791 375.658L474.818 269.055C473.865 268.514 472.781 268.234 471.68 268.243C470.579 268.252 469.5 268.551 468.557 269.108C467.612 269.665 466.837 270.46 466.311 271.41C465.786 272.36 465.529 273.431 465.567 274.511V335.237C465.553 336.337 465.829 337.423 466.37 338.388C466.911 339.352 467.697 340.163 468.652 340.741L646.698 445.106C648.623 446.193 650.996 446.174 652.902 445.059C653.839 444.511 654.611 443.727 655.138 442.79C655.664 441.852 655.927 440.794 655.899 439.723L656.829 383.084C656.871 381.609 656.52 380.149 655.812 378.847C655.104 377.545 654.063 376.446 652.791 375.658V375.658Z" fill="#F47B56"/>
<path d="M610.188 406.922C616.575 415.693 627.807 418.145 635.247 412.425C642.685 406.705 643.541 394.954 637.155 386.208C630.768 377.458 619.536 374.985 612.098 380.703C604.658 386.423 603.802 398.15 610.188 406.922Z" fill="white"/>
<path d="M592.716 364.819L520.039 321.876C519.415 321.589 518.704 321.541 518.047 321.742C517.389 321.942 516.831 322.376 516.482 322.959C516.133 323.542 516.018 324.232 516.16 324.894C516.302 325.556 516.691 326.142 517.25 326.537L589.877 369.48C590.501 369.767 591.211 369.815 591.869 369.615C592.527 369.414 593.085 368.98 593.434 368.397C593.783 367.814 593.898 367.124 593.757 366.463C593.615 365.801 593.227 365.215 592.668 364.819H592.716V364.819ZM589.707 382.386L489.622 323.101C488.998 322.815 488.287 322.767 487.629 322.968C486.971 323.168 486.413 323.603 486.065 324.186C485.716 324.769 485.601 325.459 485.743 326.121C485.885 326.783 486.274 327.369 486.833 327.765L586.941 386.952C587.565 387.238 588.276 387.286 588.933 387.086C589.591 386.885 590.149 386.451 590.498 385.869C590.847 385.285 590.962 384.595 590.82 383.934C590.678 383.272 590.289 382.686 589.73 382.29L589.707 382.386V382.386Z" fill="#F2F2F2"/>
<path d="M608.134 382.82L430.109 276.218C429.156 275.677 428.073 275.396 426.972 275.405C425.87 275.414 424.792 275.712 423.848 276.269C422.904 276.826 422.129 277.621 421.604 278.571C421.078 279.521 420.822 280.592 420.861 281.672V342.399C420.853 343.498 421.135 344.579 421.68 345.539C422.224 346.499 423.013 347.305 423.968 347.878L602.014 452.245C603.94 453.331 606.312 453.312 608.22 452.196C609.157 451.647 609.928 450.864 610.454 449.927C610.98 448.989 611.243 447.931 611.215 446.862L612.145 390.221C612.185 388.753 611.836 387.299 611.133 386.003C610.43 384.706 609.397 383.609 608.134 382.82V382.82Z" fill="#68E1FD"/>
<path d="M608.134 382.82L430.109 276.218C429.156 275.677 428.073 275.396 426.972 275.405C425.87 275.414 424.792 275.712 423.848 276.269C422.904 276.826 422.129 277.621 421.604 278.571C421.078 279.521 420.822 280.592 420.861 281.672V342.399C420.853 343.498 421.135 344.579 421.68 345.539C422.224 346.499 423.013 347.305 423.968 347.878L602.014 452.245C603.94 453.331 606.312 453.312 608.22 452.196C609.157 451.647 609.928 450.864 610.454 449.927C610.98 448.989 611.243 447.931 611.215 446.862L612.145 390.221C612.185 388.753 611.836 387.299 611.133 386.003C610.43 384.706 609.397 383.609 608.134 382.82V382.82Z" fill="#68E1FD"/>
<path d="M565.506 414.083C571.891 422.853 583.125 425.306 590.563 419.586C598.003 413.866 598.859 402.115 592.473 393.369C586.085 384.621 574.852 382.146 567.414 387.866C559.976 393.584 559.193 405.311 565.504 414.083H565.506Z" fill="white"/>
<path d="M548.034 371.982L475.382 329.039C474.758 328.752 474.047 328.704 473.389 328.904C472.732 329.105 472.174 329.539 471.825 330.122C471.476 330.705 471.361 331.394 471.502 332.056C471.644 332.718 472.032 333.304 472.591 333.7L545.22 376.643C545.844 376.93 546.554 376.978 547.212 376.777C547.87 376.577 548.428 376.143 548.777 375.56C549.126 374.977 549.241 374.287 549.099 373.625C548.957 372.963 548.568 372.377 548.009 371.982H548.034V371.982ZM545.023 389.453L444.915 330.262C444.291 329.976 443.58 329.928 442.922 330.129C442.264 330.329 441.707 330.764 441.358 331.347C441.009 331.93 440.894 332.62 441.036 333.282C441.178 333.944 441.567 334.53 442.126 334.925L542.234 394.112C542.858 394.399 543.569 394.447 544.227 394.247C544.885 394.046 545.443 393.612 545.791 393.029C546.14 392.446 546.255 391.756 546.113 391.095C545.971 390.433 545.582 389.847 545.023 389.451V389.453Z" fill="#F2F2F2"/>
<path d="M374.49 376.858C362.984 386.586 354.284 399.107 349.261 413.169C340.402 437.201 362.548 476.466 362.548 476.466L397.003 449.674" fill="#FF8F6F"/>
<path d="M370.769 694.572L361.423 689.502L363.868 676.381C363.868 676.381 377.793 677.678 379.015 682.532" fill="#003B94"/>
<path d="M374.196 694.381C376.301 693.107 378.503 691.977 380.681 690.847C386.087 687.939 393.895 684.936 397.223 679.48C397.905 678.377 398.228 677.096 398.149 675.808C398.071 674.52 397.595 673.286 396.783 672.27C391.888 666.455 381.17 676.02 375.688 669.58C374.612 668.306 374.099 648.095 374.099 648.095L353.249 653.623C353.249 653.623 349.725 694.235 350.117 696.734C350.508 699.233 357.679 701.542 357.679 701.542C359.814 701.096 361.852 700.282 363.698 699.138C365.875 697.575 363.893 678.519 366.683 681.187C369.472 683.855 370.695 694.283 370.695 694.283C371.854 694.456 373.029 694.489 374.196 694.379V694.381Z" fill="#F47B56"/>
<path d="M410.584 714.203L401.236 709.207L403.681 696.086C403.681 696.086 417.606 697.384 418.828 702.237" fill="#003B94"/>
<path d="M414.106 714.012C416.211 712.738 418.414 711.61 420.591 710.481C425.999 707.573 433.806 704.569 437.133 699.114C437.815 698.01 438.138 696.729 438.06 695.442C437.981 694.154 437.505 692.92 436.694 691.904C431.798 686.088 421.08 695.653 415.6 689.213C414.523 687.939 414.009 667.729 414.009 667.729L393.16 673.256C393.16 673.256 389.613 714.012 390.004 716.416C390.396 718.818 397.565 721.222 397.565 721.222C399.701 720.776 401.739 719.962 403.585 718.818C405.763 717.257 403.78 698.201 406.571 700.869C409.36 703.535 410.582 713.966 410.582 713.966C411.75 714.123 412.934 714.139 414.106 714.012V714.012Z" fill="#F47B56"/>
<path d="M342.654 582.179L336.511 662.852C336.511 662.852 346.3 676.117 379.115 668.739L379.432 614.356L342.654 582.179ZM380.559 598.16C379.848 605.104 380.559 681.715 380.559 681.715C380.559 681.715 389.636 698.392 429.156 681.715L428.593 616.615" fill="#3E2928"/>
<path d="M339.594 608.829C342.287 610.655 343.216 601.259 346.031 602.871C356.268 608.71 367.133 613.416 378.429 616.904H378.673C378.942 616.775 379.235 616.701 379.534 616.686C379.833 616.671 380.132 616.716 380.413 616.816C380.694 616.917 380.951 617.073 381.17 617.274C381.388 617.474 381.563 617.716 381.684 617.985C388.661 620.029 395.764 621.634 402.949 622.791C412.175 624.233 419.808 617.53 429.279 617.072C429.279 581.459 429.451 480.096 414.009 458.469L368.322 443.377C368.103 447.077 346.153 472.069 346.69 502.541C347.301 536.881 342.751 569.275 341.968 580.016C341.846 581.843 339.693 606.884 339.594 608.829V608.829Z" fill="#3E2928"/>
<path d="M418.217 417.519L414.009 458.371C414.009 458.371 379.923 459.718 365.239 449.77V415.115" fill="#FF8F6F"/>
<path d="M461.554 390.629L458.08 395.291C459.932 391.499 461.568 387.609 462.973 383.637C463.953 380.92 459.524 379.839 458.546 382.554L458.03 383.948C458.456 382.505 458.855 381.057 459.23 379.598C459.307 379.311 459.326 379.011 459.285 378.717C459.243 378.423 459.143 378.14 458.989 377.884C458.835 377.628 458.63 377.405 458.387 377.228C458.145 377.05 457.868 376.922 457.575 376.85C457.281 376.779 456.975 376.765 456.676 376.81C456.377 376.855 456.09 376.958 455.831 377.114C455.573 377.269 455.349 377.473 455.172 377.713C454.995 377.954 454.868 378.227 454.8 378.517C453.84 382.288 452.689 386.01 451.35 389.668C452.098 386.42 452.638 383.128 452.966 379.813C453.26 376.956 448.684 377.076 448.414 379.813C448.034 383.586 447.347 387.324 446.359 390.989C446.359 389.708 446.237 388.426 445.992 387.145C445.959 386.825 445.857 386.516 445.692 386.238C445.527 385.96 445.304 385.72 445.037 385.533C444.913 385.031 444.767 384.534 444.598 384.044C444.425 383.54 444.077 383.112 443.614 382.836C443.152 382.56 442.604 382.452 442.069 382.533C441.534 382.613 441.044 382.877 440.688 383.277C440.331 383.676 440.129 384.187 440.119 384.718L439.824 401.539C438.997 403.282 437.916 404.902 436.619 406.345C438.821 407.841 440.945 409.445 442.982 411.151C444.799 412.659 446.531 414.264 448.17 415.957C449.633 414.17 451.044 412.343 452.403 410.478C452.571 410.338 452.72 410.177 452.842 409.997C456.918 404.074 461.128 398.241 465.47 392.503C467.281 390.532 463.292 388.346 461.554 390.629V390.629Z" fill="#FFB5A9"/>
<path d="M396.587 380.272C396.587 380.272 412.689 384.525 419.222 394.689C423.314 401.726 426.919 409.025 430.014 416.536L441.905 398.39C441.905 398.39 456.343 402.74 462.068 409.71C462.068 409.71 444.94 446.476 430.012 449.625C415.086 452.773 399.228 428.045 399.228 428.045C399.228 428.045 395.951 438.378 396.587 427.348" fill="#FF8F6F"/>
<path d="M406.815 419.562C402.134 415.821 398.602 410.88 396.611 405.288C394.676 398.825 397.1 393.151 399.351 387.145C401.788 381.189 403.21 374.881 403.561 368.472C403.755 362.177 403.022 355.882 402.581 349.607C402.518 349.338 402.518 349.059 402.581 348.79C400.428 341.702 396.023 335.694 387.338 334.972C364.848 333.099 363.576 357.562 363.748 367.511C363.919 377.46 364.995 384.188 357.532 388.345C350.067 392.503 344.684 403.413 351.805 412.234C358.926 421.051 352.539 417.832 347.792 425.666C343.046 433.499 344.268 443.281 354.008 446.813C363.748 450.345 409.018 443.712 413.176 439.603C414.653 437.947 415.416 435.794 415.306 433.597C414.292 428.068 411.277 423.085 406.815 419.563V419.562Z" fill="#007F68"/>
<path d="M428.937 217.798C432.749 223.186 434.952 229.511 435.297 236.061C435.724 239.06 434.982 242.106 433.219 244.592C432.469 245.403 431.465 245.945 430.365 246.132C429.266 246.319 428.134 246.141 427.149 245.626C425.912 245.142 424.795 244.405 423.871 243.464C423.04 242.699 422.331 241.816 421.766 240.845L421.18 239.715C421.019 240.01 420.822 240.285 420.591 240.532C420.008 240.977 419.317 241.267 418.586 241.373C417.362 241.595 416.098 241.444 414.964 240.94C412.259 239.79 410.008 237.808 408.552 235.293C406.796 232.559 405.817 229.415 405.713 226.186C405.534 224.894 405.645 223.579 406.039 222.334C406.432 221.088 407.098 219.942 407.99 218.976C408.765 218.242 409.752 217.76 410.816 217.596C411.88 217.433 412.97 217.595 413.936 218.062C414.916 218.446 415.82 218.999 416.603 219.697C417.271 220.254 417.862 220.891 418.364 221.595L418.803 222.363V220.226L423.699 222.099L424.188 235.606C424.222 236.573 424.528 237.512 425.071 238.321C425.529 239.102 426.234 239.717 427.076 240.075C429.441 240.989 430.534 238.986 430.356 234.068C430.11 229.197 428.473 224.492 425.632 220.49C423.081 216.42 419.289 213.242 414.792 211.407C413.161 210.592 411.317 210.278 409.502 210.505C407.686 210.733 405.982 211.491 404.611 212.681C403.149 214.124 402.036 215.871 401.355 217.792C400.673 219.713 400.44 221.76 400.672 223.782C400.951 228.933 402.642 233.914 405.566 238.201C407.893 242.433 411.56 245.806 416.015 247.813C417.566 248.45 419.231 248.768 420.91 248.749C422.003 248.822 423.097 248.625 424.091 248.174L425.071 247.644L428.031 253.051L427.54 253.388C427.076 253.645 426.594 253.869 426.098 254.061C425.315 254.393 424.494 254.619 423.649 254.736C422.57 254.878 421.476 254.878 420.396 254.736C418.978 254.569 417.588 254.221 416.261 253.701C412.491 252.109 409.143 249.692 406.472 246.636C403.305 243.197 400.742 239.267 398.886 235.005C397.028 230.933 395.966 226.555 395.754 222.099C395.49 218.352 396.27 214.607 398.006 211.262C399.447 208.456 401.936 206.304 404.955 205.254C408.117 204.231 411.555 204.403 414.595 205.735C420.535 208.201 425.546 212.416 428.937 217.798V217.798ZM418.144 234.885C418.947 233.877 419.31 232.597 419.147 231.327C419.108 229.761 418.662 228.231 417.85 226.883C417.188 225.705 416.147 224.776 414.89 224.239C414.408 223.995 413.861 223.901 413.323 223.969C412.785 224.038 412.281 224.266 411.879 224.623C411.457 225.095 411.143 225.65 410.957 226.251C410.772 226.852 410.719 227.485 410.804 228.108C410.859 229.693 411.339 231.235 412.198 232.576C412.905 233.798 413.994 234.759 415.306 235.318C415.765 235.548 416.287 235.631 416.797 235.553C417.307 235.475 417.778 235.241 418.144 234.885ZM717.858 478.005C721.676 483.39 723.88 489.717 724.219 496.268C724.646 499.267 723.903 502.313 722.141 504.799C721.388 505.606 720.385 506.145 719.286 506.332C718.188 506.519 717.058 506.344 716.072 505.833C714.838 505.342 713.722 504.606 712.792 503.671C711.966 502.901 711.257 502.018 710.687 501.05L710.101 499.922C709.935 500.214 709.738 500.488 709.513 500.739C708.932 501.189 708.241 501.479 707.507 501.58C706.294 501.819 705.035 501.676 703.91 501.172C701.201 500.015 698.95 498.024 697.498 495.5C695.726 492.763 694.737 489.609 694.635 486.368C694.449 485.076 694.557 483.76 694.95 482.514C695.344 481.267 696.014 480.122 696.912 479.159C697.683 478.427 698.665 477.946 699.725 477.783C700.785 477.62 701.87 477.781 702.833 478.246C703.815 478.629 704.718 479.181 705.5 479.88C706.168 480.446 706.76 481.092 707.263 481.802L707.727 482.571V480.433L712.621 482.282L713.111 495.789C713.153 496.754 713.457 497.69 713.99 498.504C714.452 499.285 715.155 499.899 715.998 500.257C718.445 501.172 719.449 499.176 719.302 494.251C719.054 489.373 717.418 484.661 714.578 480.648C712.028 476.594 708.245 473.426 703.763 471.589C702.133 470.775 700.292 470.459 698.477 470.682C696.662 470.904 694.957 471.656 693.582 472.839C692.128 474.299 691.027 476.062 690.362 477.996C689.698 479.931 689.486 481.987 689.743 484.013C690.017 489.164 691.707 494.146 694.635 498.431C697.052 502.561 700.759 505.822 705.207 507.731C706.758 508.365 708.421 508.692 710.101 508.692C711.193 508.755 712.284 508.557 713.281 508.115L714.261 507.587L717.222 512.994L716.733 513.331C716.268 513.587 715.785 513.812 715.289 514.004C714.502 514.322 713.681 514.547 712.842 514.677C711.754 514.818 710.651 514.818 709.562 514.677C708.151 514.501 706.769 514.146 705.452 513.62C701.684 512.034 698.336 509.625 695.662 506.577C692.495 503.13 689.933 499.192 688.079 494.923C686.219 490.852 685.157 486.474 684.947 482.018C684.681 478.279 685.458 474.541 687.197 471.203C688.641 468.395 691.128 466.237 694.146 465.172C697.318 464.16 700.76 464.331 703.811 465.654C709.682 468.248 714.589 472.563 717.858 478.005V478.005ZM707.066 495.092C707.468 494.595 707.766 494.024 707.942 493.414C708.119 492.803 708.17 492.164 708.094 491.534C708.051 489.966 707.596 488.435 706.774 487.09C706.123 485.912 705.089 484.981 703.836 484.446C703.357 484.199 702.812 484.101 702.274 484.166C701.737 484.23 701.232 484.453 700.827 484.806C700.398 485.274 700.076 485.828 699.886 486.429C699.696 487.031 699.641 487.666 699.725 488.291C699.783 489.868 700.262 491.401 701.12 492.737C701.825 493.964 702.915 494.933 704.227 495.5C704.684 495.734 705.204 495.821 705.714 495.747C706.224 495.674 706.697 495.445 707.066 495.092" fill="#F47B56"/>
<path style="mix-blend-mode:multiply" opacity="0.25" d="M230.212 580.474L147.379 534.188L64.5725 580.567C64.5725 580.567 110.649 608.827 151.883 632.571C178.065 614.403 201.336 593.617 230.212 580.472V580.474Z" fill="url(#paint4_linear)"/>
<defs>
<linearGradient id="paint0_linear" x1="513.16" y1="526.601" x2="487.192" y2="562.523" gradientUnits="userSpaceOnUse">
<stop stop-color="#78B46A"/>
<stop offset="0.03" stop-color="#7F3500"/>
<stop offset="1" stop-color="white"/>
</linearGradient>
<linearGradient id="paint1_linear" x1="414.67" y1="681.099" x2="359.993" y2="742.297" gradientUnits="userSpaceOnUse">
<stop stop-color="#78B46A"/>
<stop offset="0.03" stop-color="#7F3500"/>
<stop offset="1" stop-color="white"/>
</linearGradient>
<linearGradient id="paint2_linear" x1="293.295" y1="428.749" x2="252.299" y2="474.64" gradientUnits="userSpaceOnUse">
<stop stop-color="#78B46A"/>
<stop offset="0.03" stop-color="#7F3500"/>
<stop offset="1" stop-color="white"/>
</linearGradient>
<linearGradient id="paint3_linear" x1="684.136" y1="429.351" x2="659.38" y2="410.922" gradientUnits="userSpaceOnUse">
<stop stop-color="white" stop-opacity="0"/>
<stop offset="0.99" stop-color="#DC841E"/>
</linearGradient>
<linearGradient id="paint4_linear" x1="200.7" y1="561.28" x2="145.223" y2="623.375" gradientUnits="userSpaceOnUse">
<stop stop-color="#78B46A"/>
<stop offset="0.03" stop-color="#7F3500"/>
<stop offset="1" stop-color="white"/>
</linearGradient>
</defs>
</svg>
