<svg width="947" height="979" viewBox="0 0 947 979" fill="none" xmlns="http://www.w3.org/2000/svg">
<g clip-path="url(#clip0)">
<g opacity="0.099">
<path d="M477.551 971.078L53.6403 695.898C40.1444 687.561 28.5763 673.904 41.7258 664.945L467.146 395.63C473.523 391.285 483.213 388.434 489.713 392.588L934.634 676.267C948.131 684.874 950.552 708.849 937.107 717.538L533.414 970.643C524.941 976.042 515.332 978.922 505.535 978.998C495.738 979.075 486.092 976.345 477.551 971.078V971.078Z" fill="#6862E6"/>
<path d="M477.551 581.55L53.6403 306.37C40.1444 298.034 28.5763 284.376 41.7258 275.417L467.146 6.10194C473.523 1.75704 483.213 -1.09397 489.713 3.0603L934.634 286.739C948.131 295.346 950.552 319.321 937.107 328.01L533.414 581.115C524.941 586.514 515.332 589.394 505.535 589.471C495.738 589.547 486.092 586.817 477.551 581.55V581.55Z" stroke="#1E1F36"/>
<path d="M477.551 659.248L53.6403 384.068C40.1444 375.732 28.5763 362.075 41.7258 353.115L467.146 83.8004C473.523 79.4555 483.213 76.6045 489.713 80.7587L934.634 364.438C948.131 373.045 950.552 397.019 937.107 405.708L533.414 658.813C524.941 664.212 515.332 667.093 505.535 667.169C495.738 667.245 486.092 664.515 477.551 659.248V659.248Z" stroke="#1E1F36"/>
</g>
<path d="M460.831 825.82L29.9858 576.46C16.2685 568.906 4.51218 556.529 17.8765 548.411L450.255 304.364C456.736 300.428 466.585 297.844 473.191 301.608L925.392 558.67C939.107 566.47 941.57 588.196 927.902 596.069L517.61 825.427C509 830.32 499.233 832.93 489.275 832.999C479.317 833.068 469.513 830.593 460.833 825.82H460.831Z" fill="#5B36A0"/>
<path d="M460.831 814.311L29.9858 564.95C16.2685 557.396 4.51218 545.019 17.8765 536.901L450.255 292.855C456.736 288.918 466.585 286.335 473.191 290.098L925.392 547.16C939.107 554.96 941.57 576.686 927.902 584.559L517.61 813.917C509 818.81 499.233 821.42 489.275 821.489C479.317 821.558 469.513 819.084 460.833 814.311H460.831Z" fill="#6862E6"/>
<path style="mix-blend-mode:multiply" opacity="0.25" d="M496.355 485.307L411.339 532.817C411.339 532.817 542.301 611.083 569.081 622.105L618.044 553.214" fill="url(#paint0_linear)"/>
<path style="mix-blend-mode:multiply" opacity="0.25" d="M466.987 713.237L381.947 665.827L296.91 713.336C296.91 713.336 341.199 739.809 383.53 764.119C410.411 745.492 437.316 726.672 466.987 713.237V713.237Z" fill="url(#paint1_linear)"/>
<path style="mix-blend-mode:multiply" opacity="0.46" d="M283.771 420.451L229.833 450.591C229.833 450.591 234.404 478.221 261.186 489.244L331.802 444.957" fill="url(#paint2_linear)"/>
<path d="M310.174 450.591C328.142 450.591 342.707 440.545 342.707 428.152C342.707 415.76 328.142 405.714 310.174 405.714C292.206 405.714 277.641 415.76 277.641 428.152C277.641 440.545 292.206 450.591 310.174 450.591Z" fill="#68E1FD"/>
<path d="M310.148 424.682C323.606 424.682 334.516 420.309 334.516 414.914C334.516 409.52 323.606 405.147 310.148 405.147C296.691 405.147 285.781 409.52 285.781 414.914C285.781 420.309 296.691 424.682 310.148 424.682Z" fill="#974C26"/>
<path d="M309.268 398.626C309.268 394.222 309.119 389.82 308.766 385.415C308.666 384.266 308.558 383.127 308.44 381.995L308.189 379.756C308.189 379.091 307.836 377.295 307.836 377.468C307.685 376.566 307.526 375.672 307.36 374.786C304.703 359.837 298.773 345.627 289.975 333.131C286.665 340.846 285.015 349.146 285.126 357.512C285.126 359.975 285.328 362.434 285.528 364.748V366.2C285.73 367.38 285.955 368.659 286.206 369.741C287.164 374.229 288.449 378.645 290.05 382.954C291.49 386.921 293.246 390.771 295.301 394.47C297.518 398.632 299.924 402.696 302.51 406.649C304.376 409.534 306.328 412.364 308.364 415.137C308.968 409.651 309.244 404.138 309.268 398.626V398.626ZM296.482 349.099C296.611 348.532 296.611 347.944 296.482 347.378C297.102 347.999 297.714 348.64 298.316 349.296C297.712 349.128 297.083 349.061 296.457 349.099H296.482Z" fill="#999A1C"/>
<path d="M317.634 402.022C320.124 398.346 322.414 394.544 324.493 390.631C325.046 389.614 325.582 388.598 326.101 387.581L327.131 385.538L328.111 383.422L329.19 380.961C335.212 366.962 338.066 351.854 337.556 336.674C330.493 341.413 324.506 347.528 319.971 354.635C318.669 356.685 317.453 358.786 316.328 360.934L315.826 361.844L315.7 362.239C315.223 363.346 314.745 364.452 314.294 365.584C312.627 369.872 311.275 374.271 310.248 378.747C309.271 382.85 308.625 387.021 308.315 391.222C307.871 395.892 307.653 400.579 307.662 405.269C307.662 408.935 307.662 412.283 307.887 415.505C311.229 411.151 314.594 406.672 317.634 402.022V402.022ZM334.216 353.578C334.608 353.144 334.9 352.632 335.069 352.076C335.253 352.929 335.412 353.75 335.547 354.537C335.155 354.153 334.704 353.831 334.214 353.578H334.216Z" fill="#999A1C"/>
<path d="M317.459 412.996C320.016 411.751 322.53 410.421 324.995 409.01L326.878 407.878L328.111 407.115L329.317 406.278L330.723 405.269C338.579 399.621 345.092 392.378 349.816 384.036C344.453 384.374 339.219 385.789 334.441 388.195C333.059 388.885 331.727 389.647 330.396 390.433L329.819 390.779L329.617 390.951L327.758 392.304C325.442 394.093 323.26 396.042 321.228 398.135C319.35 400.042 317.627 402.09 316.076 404.26C314.332 406.675 312.657 409.137 311.052 411.642C309.915 413.48 308.833 415.351 307.811 417.253C311.052 415.923 314.294 414.546 317.459 412.994V412.996ZM342.38 392.083C342.735 391.974 343.061 391.788 343.335 391.54C343.15 392.066 342.95 392.582 342.731 393.09C342.665 392.747 342.547 392.415 342.38 392.106V392.083ZM309.268 398.626C309.268 394.222 309.119 389.82 308.766 385.415C308.666 384.266 308.558 383.127 308.44 381.995L308.189 379.756C308.189 379.091 307.836 377.295 307.836 377.468C307.685 376.566 307.526 375.672 307.36 374.786C304.703 359.837 298.773 345.627 289.975 333.131C286.665 340.846 285.015 349.146 285.126 357.512C285.126 359.975 285.328 362.434 285.528 364.748V366.2C285.73 367.38 285.955 368.659 286.206 369.741C287.164 374.229 288.449 378.645 290.05 382.954C291.49 386.921 293.246 390.771 295.301 394.47C297.518 398.632 299.924 402.696 302.51 406.649C304.376 409.534 306.328 412.364 308.364 415.137C308.968 409.651 309.244 404.138 309.268 398.626V398.626ZM296.482 349.099C296.611 348.532 296.611 347.944 296.482 347.378C297.102 347.999 297.714 348.64 298.316 349.296C297.712 349.128 297.083 349.061 296.457 349.099H296.482Z" fill="#999A1C"/>
<path d="M317.634 402.022C320.124 398.346 322.414 394.544 324.493 390.631C325.046 389.614 325.582 388.598 326.101 387.581L327.131 385.538L328.111 383.422L329.19 380.961C335.212 366.962 338.066 351.854 337.556 336.674C330.493 341.413 324.506 347.528 319.971 354.635C318.669 356.685 317.453 358.786 316.328 360.934L315.826 361.844L315.7 362.239C315.223 363.346 314.745 364.452 314.294 365.584C312.627 369.872 311.275 374.271 310.248 378.747C309.271 382.85 308.625 387.021 308.315 391.222C307.871 395.892 307.653 400.579 307.662 405.269C307.662 408.935 307.662 412.283 307.887 415.505C311.229 411.151 314.594 406.672 317.634 402.022V402.022ZM334.216 353.578C334.608 353.144 334.9 352.632 335.069 352.076C335.253 352.929 335.412 353.75 335.547 354.537C335.155 354.153 334.704 353.831 334.214 353.578H334.216Z" fill="#999A1C"/>
<path d="M317.459 412.996C320.016 411.751 322.53 410.421 324.995 409.01L326.878 407.878L328.111 407.115L329.317 406.278L330.723 405.269C338.579 399.621 345.092 392.378 349.816 384.036C344.453 384.374 339.219 385.789 334.441 388.195C333.059 388.885 331.727 389.647 330.396 390.433L329.819 390.779L329.617 390.951L327.758 392.304C325.442 394.093 323.26 396.042 321.228 398.135C319.349 400.042 317.627 402.09 316.076 404.26C314.332 406.675 312.657 409.137 311.052 411.642C309.914 413.48 308.833 415.351 307.811 417.253C311.052 415.924 314.294 414.546 317.459 412.994V412.996ZM342.38 392.083C342.735 391.974 343.061 391.788 343.335 391.54C343.15 392.066 342.95 392.582 342.731 393.09C342.665 392.747 342.547 392.415 342.38 392.106V392.083Z" fill="#999A1C"/>
<path d="M530.118 466.756L483.065 488.898C481.291 489.734 479.784 491.027 478.704 492.637C477.624 494.247 477.013 496.114 476.936 498.038C476.858 499.962 477.318 501.871 478.265 503.559C479.212 505.247 480.611 506.651 482.312 507.621L593.829 571.346C596.239 572.725 599.101 573.14 601.817 572.503C604.532 571.866 606.891 570.226 608.399 567.928L635.507 526.641" fill="#A1482D"/>
<path d="M786.038 359.95L410.837 148.207C408.263 146.758 405.346 145.997 402.376 146C399.407 146.003 396.491 146.771 393.921 148.226C391.349 149.683 389.215 151.776 387.731 154.294C386.246 156.813 385.465 159.668 385.465 162.575V382.856C385.465 385.274 386.114 387.649 387.349 389.743C388.584 391.838 390.36 393.577 392.499 394.788L792.494 620.924C793.873 621.707 795.44 622.119 797.035 622.12C798.63 622.121 800.197 621.711 801.577 620.929C802.959 620.148 804.105 619.024 804.901 617.67C805.697 616.317 806.114 614.783 806.111 613.222V393.854C806.107 386.975 804.249 380.22 800.725 374.267C797.201 368.315 792.135 363.377 786.038 359.95V359.95Z" fill="#F47B56"/>
<path d="M410.862 164.866L774.733 369.891C778.619 372.084 781.846 375.24 784.091 379.04C786.335 382.84 787.517 387.151 787.519 391.54V556.658C787.516 558.237 787.091 559.788 786.284 561.157C785.478 562.525 784.318 563.662 782.922 564.455C781.526 565.247 779.942 565.666 778.329 565.671C776.716 565.676 775.129 565.266 773.729 564.482L402.648 356.037C401.258 355.257 400.104 354.131 399.301 352.775C398.499 351.419 398.076 349.879 398.076 348.312V172.122C398.076 169.14 399.698 166.383 402.334 164.887C403.629 164.151 405.099 163.762 406.596 163.758C408.093 163.755 409.565 164.137 410.864 164.866H410.862Z" fill="white"/>
<path d="M563.967 476.302C568.259 475.494 570.972 470.945 570.027 466.142C569.081 461.338 564.835 458.1 560.543 458.909C556.25 459.717 553.537 464.266 554.483 469.07C555.428 473.873 559.675 477.111 563.967 476.302Z" fill="#AB643C"/>
<path opacity="0.32" d="M508.664 388.884L677.763 488.382L761.292 440.823L612.041 355.742" fill="url(#paint3_linear)"/>
<path d="M717.63 369.077L534.816 259.908C533.838 259.354 532.725 259.067 531.595 259.077C530.464 259.086 529.357 259.392 528.388 259.962C527.418 260.532 526.622 261.346 526.083 262.319C525.543 263.292 525.279 264.388 525.319 265.494V327.696C525.311 328.821 525.601 329.929 526.16 330.911C526.719 331.894 527.528 332.719 528.51 333.305L711.3 440.161C713.255 441.249 715.653 441.235 717.595 440.122C718.549 439.576 719.34 438.794 719.889 437.855C720.437 436.916 720.724 435.852 720.721 434.771L721.676 376.781C721.746 375.264 721.41 373.755 720.7 372.404C719.99 371.053 718.932 369.907 717.63 369.079V369.077Z" fill="#E2AC00"/>
<path d="M673.893 401.088C680.449 410.067 691.98 412.578 699.618 406.722C707.254 400.865 708.135 388.836 701.579 379.879C695.019 370.923 683.489 368.389 675.85 374.245C668.214 380.1 667.336 392.106 673.893 401.088V401.088Z" fill="white"/>
<path d="M655.956 357.982L581.392 314.015C580.752 313.722 580.022 313.673 579.347 313.878C578.672 314.083 578.099 314.527 577.741 315.124C577.383 315.721 577.265 316.427 577.41 317.105C577.556 317.783 577.955 318.383 578.529 318.788L653.091 362.755C653.731 363.048 654.461 363.097 655.136 362.892C655.812 362.687 656.384 362.243 656.742 361.646C657.101 361.049 657.219 360.343 657.074 359.665C656.928 358.988 656.53 358.387 655.956 357.982V357.982ZM652.891 375.845L550.114 315.245C549.485 315.033 548.799 315.045 548.177 315.277C547.555 315.509 547.036 315.947 546.711 316.514C546.385 317.082 546.273 317.744 546.395 318.384C546.517 319.024 546.864 319.602 547.376 320.017L650.026 380.641C650.666 380.934 651.396 380.983 652.071 380.778C652.747 380.573 653.319 380.129 653.677 379.532C654.036 378.935 654.154 378.229 654.009 377.551C653.863 376.874 653.465 376.273 652.891 375.868V375.843V375.845Z" fill="#F2F2F2"/>
<path d="M681.153 381.134L498.439 271.99C497.461 271.436 496.348 271.149 495.218 271.158C494.087 271.167 492.98 271.473 492.011 272.043C491.041 272.614 490.245 273.428 489.706 274.4C489.166 275.373 488.902 276.47 488.942 277.576V339.749C488.927 340.876 489.211 341.987 489.766 342.975C490.321 343.963 491.128 344.793 492.109 345.385L674.897 452.238C676.874 453.351 679.31 453.332 681.267 452.19C682.229 451.629 683.021 450.827 683.562 449.867C684.103 448.906 684.372 447.823 684.344 446.727L685.299 388.738C685.341 387.227 684.981 385.732 684.254 384.399C683.527 383.066 682.459 381.941 681.153 381.134V381.134Z" fill="#F47B56"/>
<path d="M637.415 413.144C643.972 422.123 655.503 424.634 663.141 418.778C670.777 412.921 671.656 400.89 665.1 391.935C658.543 382.977 647.012 380.445 639.376 386.3C631.737 392.156 630.859 404.163 637.415 413.144Z" fill="white"/>
<path d="M619.477 370.036L544.864 326.07C544.224 325.776 543.495 325.727 542.819 325.932C542.144 326.137 541.571 326.582 541.213 327.178C540.855 327.776 540.737 328.482 540.883 329.16C541.028 329.837 541.427 330.437 542.001 330.842L616.563 374.809C617.204 375.103 617.933 375.152 618.608 374.947C619.284 374.741 619.857 374.297 620.215 373.7C620.573 373.103 620.691 372.397 620.546 371.72C620.4 371.042 620.002 370.442 619.428 370.036H619.477V370.036ZM616.389 388.022L513.637 327.324C512.997 327.031 512.267 326.982 511.592 327.188C510.916 327.393 510.343 327.838 509.986 328.435C509.627 329.032 509.51 329.738 509.655 330.416C509.801 331.094 510.2 331.694 510.774 332.099L613.549 392.697C614.189 392.991 614.919 393.04 615.594 392.834C616.27 392.629 616.842 392.185 617.2 391.588C617.559 390.991 617.677 390.285 617.531 389.607C617.385 388.93 616.986 388.33 616.412 387.924L616.389 388.022V388.022Z" fill="#F2F2F2"/>
<path d="M635.306 388.467L452.54 279.323C451.561 278.769 450.449 278.481 449.318 278.491C448.188 278.5 447.08 278.805 446.111 279.375C445.142 279.946 444.347 280.76 443.807 281.732C443.268 282.705 443.005 283.801 443.044 284.907V347.082C443.037 348.207 443.326 349.315 443.886 350.297C444.445 351.28 445.254 352.105 446.235 352.691L629.023 459.547C631 460.66 633.436 460.64 635.395 459.497C636.356 458.935 637.148 458.133 637.688 457.174C638.229 456.214 638.498 455.131 638.47 454.036L639.425 396.044C639.465 394.541 639.107 393.053 638.385 391.725C637.664 390.398 636.603 389.275 635.306 388.467V388.467Z" fill="#68E1FD"/>
<path d="M635.306 388.467L452.54 279.323C451.561 278.769 450.449 278.481 449.318 278.491C448.188 278.5 447.08 278.805 446.111 279.375C445.142 279.946 444.347 280.76 443.807 281.732C443.268 282.705 443.005 283.801 443.044 284.907V347.082C443.037 348.207 443.326 349.315 443.886 350.297C444.445 351.28 445.254 352.105 446.235 352.691L629.023 459.547C631 460.66 633.436 460.64 635.395 459.497C636.356 458.935 637.148 458.133 637.688 457.174C638.229 456.214 638.498 455.131 638.47 454.036L639.425 396.044C639.465 394.541 639.107 393.053 638.385 391.725C637.664 390.398 636.603 389.275 635.306 388.467V388.467Z" fill="#68E1FD"/>
<path d="M591.542 420.476C598.098 429.455 609.631 431.966 617.267 426.11C624.905 420.253 625.784 408.222 619.228 399.267C612.67 390.311 601.138 387.777 593.502 393.633C585.865 399.488 585.061 411.494 591.54 420.476H591.542Z" fill="white"/>
<path d="M573.605 377.37L499.018 333.403C498.377 333.11 497.648 333.061 496.973 333.266C496.297 333.471 495.724 333.915 495.366 334.512C495.008 335.109 494.89 335.815 495.035 336.493C495.181 337.17 495.579 337.77 496.153 338.176L570.716 382.143C571.357 382.436 572.086 382.485 572.762 382.28C573.437 382.075 574.01 381.631 574.368 381.034C574.726 380.437 574.844 379.73 574.698 379.053C574.553 378.375 574.154 377.775 573.58 377.37H573.605V377.37ZM570.515 395.258L467.74 334.656C467.099 334.362 466.369 334.314 465.694 334.519C465.018 334.725 464.446 335.169 464.088 335.767C463.73 336.364 463.612 337.07 463.758 337.748C463.904 338.425 464.302 339.025 464.876 339.43L567.651 400.029C568.292 400.322 569.021 400.371 569.697 400.166C570.372 399.961 570.945 399.517 571.303 398.92C571.661 398.323 571.779 397.616 571.633 396.939C571.487 396.261 571.089 395.661 570.515 395.256V395.258Z" fill="#F2F2F2"/>
<path d="M395.439 382.363C383.626 392.323 374.694 405.142 369.538 419.539C360.443 444.145 383.179 484.346 383.179 484.346L418.551 456.915" fill="#FF8F6F"/>
<path d="M391.619 707.653L382.023 702.462L384.534 689.028C384.534 689.028 398.829 690.356 400.084 695.326" fill="#003B94"/>
<path d="M395.137 707.457C397.298 706.152 399.559 704.996 401.795 703.839C407.344 700.862 415.361 697.787 418.777 692.201C419.477 691.071 419.809 689.76 419.728 688.441C419.648 687.123 419.159 685.859 418.326 684.819C413.3 678.865 402.297 688.658 396.668 682.065C395.564 680.76 395.037 660.068 395.037 660.068L373.632 665.727C373.632 665.727 370.014 707.307 370.416 709.866C370.818 712.425 378.18 714.789 378.18 714.789C380.372 714.332 382.464 713.499 384.359 712.327C386.595 710.728 384.559 691.217 387.424 693.948C390.287 696.68 391.542 707.357 391.542 707.357C392.733 707.534 393.939 707.568 395.137 707.455V707.457Z" fill="#F47B56"/>
<path d="M432.494 727.752L422.897 722.636L425.407 709.203C425.407 709.203 439.703 710.532 440.958 715.5" fill="#003B94"/>
<path d="M436.11 727.557C438.271 726.252 440.532 725.097 442.768 723.941C448.32 720.963 456.334 717.889 459.75 712.303C460.451 711.173 460.782 709.862 460.702 708.543C460.621 707.224 460.132 705.961 459.299 704.921C454.273 698.967 443.27 708.759 437.644 702.166C436.538 700.862 436.01 680.169 436.01 680.169L414.606 685.828C414.606 685.828 410.964 727.557 411.366 730.018C411.768 732.477 419.128 734.938 419.128 734.938C421.321 734.482 423.414 733.648 425.309 732.477C427.545 730.879 425.509 711.368 428.374 714.1C431.237 716.83 432.492 727.509 432.492 727.509C433.692 727.67 434.907 727.686 436.11 727.557V727.557Z" fill="#F47B56"/>
<path d="M362.755 592.579L356.448 675.176C356.448 675.176 366.498 688.758 400.186 681.203L400.512 625.524L362.755 592.579ZM401.669 608.942C400.939 616.051 401.669 694.489 401.669 694.489C401.669 694.489 410.988 711.564 451.561 694.489L450.983 627.837" fill="#3E2928"/>
<path d="M359.613 619.865C362.378 621.735 363.331 612.115 366.222 613.765C376.731 619.743 387.886 624.562 399.482 628.132H399.734C400.01 628.001 400.31 627.925 400.617 627.91C400.924 627.894 401.231 627.94 401.519 628.043C401.808 628.146 402.072 628.306 402.296 628.511C402.521 628.717 402.7 628.964 402.824 629.239C409.987 631.332 417.279 632.976 424.656 634.16C434.128 635.637 441.964 628.773 451.687 628.305C451.687 591.843 451.863 488.062 436.01 465.919L389.107 450.468C388.881 454.256 366.347 479.844 366.898 511.043C367.526 546.201 362.855 579.368 362.051 590.366C361.925 592.236 359.715 617.874 359.613 619.865V619.865Z" fill="#3E2928"/>
<path d="M440.33 423.994L436.01 465.82C436.01 465.82 401.016 467.199 385.942 457.013V421.533" fill="#FF8F6F"/>
<path d="M484.822 396.463L481.255 401.235C483.157 397.353 484.836 393.37 486.279 389.304C487.285 386.522 482.737 385.415 481.733 388.195L481.204 389.622C481.641 388.145 482.051 386.662 482.435 385.168C482.515 384.874 482.534 384.567 482.492 384.266C482.449 383.965 482.346 383.675 482.188 383.413C482.03 383.152 481.82 382.923 481.571 382.741C481.322 382.56 481.038 382.428 480.736 382.355C480.435 382.282 480.121 382.268 479.814 382.314C479.507 382.36 479.212 382.466 478.947 382.624C478.682 382.783 478.452 382.992 478.27 383.239C478.088 383.485 477.958 383.765 477.888 384.061C476.903 387.922 475.721 391.733 474.346 395.479C475.114 392.152 475.668 388.782 476.005 385.388C476.307 382.463 471.609 382.586 471.332 385.388C470.942 389.252 470.236 393.078 469.222 396.831C469.222 395.519 469.097 394.207 468.846 392.895C468.811 392.567 468.706 392.251 468.537 391.966C468.368 391.682 468.139 391.436 467.865 391.245C467.738 390.73 467.587 390.221 467.414 389.72C467.237 389.204 466.879 388.766 466.404 388.483C465.929 388.2 465.367 388.09 464.818 388.173C464.268 388.256 463.766 388.525 463.4 388.935C463.033 389.344 462.826 389.867 462.815 390.41L462.513 407.633C461.664 409.417 460.554 411.076 459.223 412.553C461.484 414.085 463.664 415.727 465.755 417.473C467.62 419.018 469.398 420.66 471.081 422.394C472.583 420.564 474.032 418.694 475.427 416.785C475.599 416.641 475.752 416.476 475.878 416.292C480.062 410.228 484.384 404.256 488.842 398.381C490.701 396.363 486.607 394.124 484.822 396.463V396.463Z" fill="#FFB5A9"/>
<path d="M418.124 385.858C418.124 385.858 434.655 390.213 441.362 400.619C445.563 407.824 449.265 415.297 452.442 422.987L464.649 404.408C464.649 404.408 479.472 408.862 485.35 415.998C485.35 415.998 467.765 453.641 452.44 456.865C437.116 460.088 420.836 434.771 420.836 434.771C420.836 434.771 417.471 445.35 418.124 434.057" fill="#FF8F6F"/>
<path d="M428.625 426.085C423.819 422.254 420.193 417.196 418.149 411.471C416.163 404.853 418.651 399.045 420.961 392.895C423.464 386.797 424.924 380.338 425.284 373.777C425.484 367.332 424.731 360.886 424.278 354.462C424.213 354.187 424.213 353.901 424.278 353.626C422.068 346.369 417.545 340.217 408.629 339.478C385.54 337.56 384.234 362.607 384.41 372.793C384.587 382.979 385.691 389.868 378.029 394.124C370.365 398.381 364.839 409.551 372.15 418.582C379.46 427.61 372.903 424.314 368.03 432.334C363.157 440.355 364.412 450.37 374.411 453.986C384.41 457.602 430.886 450.811 435.155 446.604C436.671 444.909 437.455 442.704 437.342 440.454C436.3 434.794 433.205 429.692 428.625 426.087V426.085Z" fill="#007F68"/>
<path d="M451.336 219.51C455.249 225.027 457.511 231.503 457.866 238.209C458.304 241.279 457.542 244.398 455.732 246.943C454.962 247.773 453.931 248.328 452.802 248.52C451.673 248.711 450.511 248.529 449.5 248.002C448.23 247.506 447.083 246.751 446.135 245.788C445.282 245.004 444.554 244.1 443.974 243.106L443.372 241.95C443.207 242.252 443.004 242.533 442.768 242.786C442.169 243.242 441.46 243.539 440.709 243.647C439.452 243.875 438.155 243.72 436.991 243.204C434.213 242.027 431.903 239.997 430.408 237.422C428.606 234.623 427.6 231.404 427.494 228.098C427.31 226.775 427.424 225.429 427.828 224.154C428.231 222.879 428.915 221.706 429.831 220.716C430.626 219.964 431.64 219.471 432.732 219.303C433.825 219.136 434.944 219.302 435.936 219.78C436.942 220.173 437.869 220.739 438.673 221.455C439.36 222.024 439.966 222.677 440.481 223.398L440.933 224.184V221.996L445.959 223.914L446.461 237.743C446.496 238.733 446.81 239.694 447.367 240.522C447.837 241.322 448.561 241.951 449.426 242.318C451.853 243.254 452.975 241.203 452.793 236.168C452.54 231.181 450.859 226.364 447.943 222.266C445.324 218.1 441.431 214.846 436.814 212.966C435.14 212.132 433.247 211.811 431.383 212.044C429.519 212.276 427.769 213.052 426.362 214.271C424.861 215.748 423.719 217.537 423.019 219.504C422.319 221.471 422.08 223.567 422.319 225.637C422.605 230.91 424.341 236.01 427.343 240.4C429.731 244.732 433.496 248.186 438.069 250.24C439.662 250.893 441.372 251.219 443.096 251.199C444.217 251.274 445.34 251.072 446.361 250.611L447.367 250.068L450.406 255.604L449.902 255.949C449.425 256.211 448.931 256.441 448.422 256.638C447.618 256.977 446.774 257.209 445.908 257.328C444.799 257.474 443.676 257.474 442.568 257.328C441.112 257.158 439.684 256.802 438.322 256.269C434.452 254.639 431.015 252.165 428.272 249.036C425.021 245.515 422.39 241.491 420.485 237.127C418.577 232.958 417.486 228.476 417.269 223.914C416.998 220.077 417.798 216.243 419.581 212.819C421.06 209.946 423.616 207.742 426.715 206.667C429.962 205.62 433.491 205.796 436.612 207.16C442.71 209.684 447.855 214 451.336 219.51V219.51ZM440.256 237.004C441.08 235.972 441.452 234.662 441.285 233.361C441.245 231.758 440.787 230.192 439.954 228.811C439.274 227.606 438.205 226.654 436.914 226.105C436.42 225.855 435.859 225.758 435.306 225.829C434.754 225.899 434.237 226.132 433.824 226.498C433.39 226.981 433.068 227.55 432.877 228.165C432.687 228.78 432.633 229.428 432.72 230.066C432.777 231.689 433.269 233.267 434.151 234.641C434.877 235.892 435.995 236.876 437.342 237.447C437.813 237.684 438.349 237.768 438.872 237.689C439.396 237.609 439.88 237.369 440.256 237.004ZM747.953 485.921C751.873 491.435 754.135 497.913 754.483 504.621C754.921 507.691 754.16 510.81 752.35 513.355C751.577 514.18 750.547 514.732 749.419 514.924C748.292 515.116 747.131 514.936 746.12 514.413C744.853 513.911 743.707 513.157 742.753 512.2C741.904 511.411 741.176 510.508 740.591 509.516L739.99 508.361C739.819 508.66 739.617 508.941 739.385 509.198C738.789 509.658 738.079 509.955 737.326 510.059C736.081 510.304 734.789 510.158 733.634 509.641C730.852 508.457 728.541 506.418 727.051 503.834C725.232 501.032 724.217 497.802 724.111 494.484C723.92 493.162 724.031 491.814 724.435 490.538C724.839 489.262 725.527 488.089 726.449 487.103C727.24 486.354 728.249 485.862 729.337 485.694C730.425 485.527 731.54 485.693 732.528 486.169C733.536 486.56 734.463 487.126 735.265 487.841C735.952 488.421 736.56 489.083 737.075 489.81L737.552 490.596V488.407L742.576 490.301L743.08 504.13C743.123 505.117 743.435 506.077 743.982 506.909C744.457 507.709 745.178 508.338 746.043 508.705C748.555 509.641 749.587 507.598 749.436 502.555C749.181 497.56 747.501 492.736 744.586 488.628C741.967 484.477 738.084 481.233 733.483 479.353C731.81 478.519 729.919 478.196 728.056 478.424C726.193 478.652 724.442 479.421 723.031 480.633C721.537 482.127 720.407 483.932 719.725 485.913C719.043 487.893 718.825 489.999 719.089 492.073C719.37 497.347 721.106 502.448 724.111 506.834C726.593 511.064 730.398 514.402 734.965 516.357C736.557 517.006 738.265 517.34 739.99 517.341C741.111 517.405 742.231 517.202 743.255 516.75L744.261 516.209L747.3 521.745L746.798 522.09C746.321 522.353 745.825 522.583 745.316 522.779C744.508 523.105 743.664 523.335 742.804 523.468C741.686 523.613 740.554 523.613 739.436 523.468C737.988 523.288 736.569 522.925 735.216 522.386C731.349 520.762 727.911 518.296 725.166 515.175C721.915 511.646 719.284 507.614 717.381 503.243C715.471 499.075 714.381 494.593 714.165 490.03C713.892 486.203 714.69 482.375 716.475 478.958C717.958 476.083 720.511 473.873 723.609 472.783C726.866 471.746 730.399 471.922 733.532 473.276C739.559 475.932 744.597 480.35 747.953 485.921V485.921ZM736.873 503.416C737.286 502.907 737.592 502.323 737.773 501.698C737.954 501.072 738.007 500.418 737.928 499.773C737.885 498.168 737.418 496.6 736.573 495.223C735.905 494.017 734.843 493.064 733.557 492.516C733.065 492.263 732.506 492.163 731.954 492.229C731.403 492.295 730.884 492.524 730.469 492.885C730.027 493.364 729.698 493.931 729.502 494.547C729.307 495.163 729.251 495.813 729.337 496.453C729.396 498.068 729.888 499.637 730.769 501.005C731.492 502.261 732.612 503.253 733.959 503.834C734.428 504.074 734.962 504.162 735.486 504.087C736.009 504.012 736.495 503.777 736.873 503.416" fill="#F47B56"/>
<path style="mix-blend-mode:multiply" opacity="0.25" d="M247.317 590.834L162.278 543.445L77.2659 590.929C77.2659 590.929 124.57 619.863 166.902 644.173C193.782 625.572 217.673 604.29 247.317 590.832V590.834Z" fill="url(#paint4_linear)"/>
</g>
<g filter="url(#filter0_d)">
<path d="M50 462.799V565.276L142.525 610.998L246.998 557.686V455.208" fill="black"/>
</g>
<path d="M50 462.799V565.276L142.525 610.998L246.998 557.686V455.208" fill="#FF9271"/>
<path d="M142.528 508.523V611L247 557.686V455.208L142.528 508.523Z" fill="#DF5C34"/>
<path d="M50 462.797L157.354 410L247 455.212L142.528 508.524L50 462.797Z" fill="#F47B56"/>
<path d="M144.984 433.52C155.868 432.886 166.736 434.951 176.305 439.472C181.786 442.254 184.78 445.157 185.203 448.183C185.627 451.208 183.819 453.843 179.555 456.064C177.532 457.143 175.304 457.903 172.974 458.309C171.058 458.699 169.094 458.87 167.127 458.821L164.98 458.674C165.18 459.087 165.313 459.523 165.377 459.968C165.309 461.021 164.919 462.04 164.246 462.92C163.128 464.557 161.531 465.912 159.616 466.849C155.152 469.137 150.036 470.303 144.845 470.216C139.473 470.34 134.166 469.184 129.507 466.873C125.1 464.629 122.842 461.992 122.672 458.967C122.689 457.365 123.227 455.8 124.226 454.449C125.225 453.098 126.644 452.017 128.321 451.33C129.93 450.464 131.682 449.814 133.517 449.403C134.981 449.038 136.487 448.817 138.008 448.744H139.562L136.736 447.28L144.673 443.011L163.06 452.355C164.466 453.008 166.037 453.35 167.634 453.35C169.231 453.35 170.803 453.008 172.209 452.355C176.109 450.257 174.716 447.5 168.031 444.084C160.927 440.708 152.851 439.159 144.759 439.619C136.181 439.71 127.791 441.791 120.468 445.645C113.803 449.241 110.498 453.527 110.556 458.505C110.556 463.383 114.085 467.728 120.948 471.216C128.439 474.831 136.946 476.58 145.521 476.267C154.058 476.387 162.467 474.461 169.81 470.703C172.352 469.403 174.632 467.755 176.561 465.823C177.851 464.641 178.815 463.224 179.383 461.676L179.78 460.139L190.259 460.651C190.276 460.927 190.276 461.203 190.259 461.48C190.067 462.227 189.812 462.961 189.496 463.676C189.041 464.822 188.434 465.92 187.688 466.948C186.612 468.33 185.362 469.606 183.962 470.752C182.115 472.29 180.078 473.649 177.888 474.804C171.583 478.07 164.598 480.241 157.327 481.196C149.404 482.39 141.314 482.513 133.347 481.561C126.105 480.825 119.106 478.85 112.758 475.753C107.632 473.412 103.528 469.695 101.064 465.165C100.058 463.189 99.5376 461.053 99.5376 458.894C99.5376 456.735 100.058 454.6 101.064 452.623C103.505 448.01 107.567 444.177 112.674 441.668C122.405 436.507 133.563 433.693 144.984 433.518V433.52ZM155.264 458.749C154.889 457.054 153.566 455.629 151.734 454.942C149.509 453.811 146.975 453.213 144.393 453.209C141.992 453.131 139.617 453.656 137.556 454.721C136.726 455.071 136.023 455.611 135.525 456.283C135.027 456.954 134.752 457.731 134.732 458.528C134.99 460.221 136.253 461.674 138.065 462.359C140.341 463.481 142.928 464.047 145.548 463.995C148.067 464.049 150.553 463.491 152.722 462.384C153.526 462.066 154.206 461.553 154.677 460.908C155.149 460.262 155.393 459.512 155.379 458.749" fill="#3E2928"/>
<defs>
<filter id="filter0_d" x="0" y="430.208" width="296.998" height="255.79" filterUnits="userSpaceOnUse" color-interpolation-filters="sRGB">
<feFlood flood-opacity="0" result="BackgroundImageFix"/>
<feColorMatrix in="SourceAlpha" type="matrix" values="0 0 0 0 0 0 0 0 0 0 0 0 0 0 0 0 0 0 127 0"/>
<feOffset dy="25"/>
<feGaussianBlur stdDeviation="25"/>
<feColorMatrix type="matrix" values="0 0 0 0 0.209139 0 0 0 0 0.0691446 0 0 0 0 0.478091 0 0 0 0.497159 0"/>
<feBlend mode="normal" in2="BackgroundImageFix" result="effect1_dropShadow"/>
<feBlend mode="normal" in="SourceGraphic" in2="effect1_dropShadow" result="shape"/>
</filter>
<linearGradient id="paint0_linear" x1="537.803" y1="535.676" x2="511.238" y2="572.523" gradientUnits="userSpaceOnUse">
<stop stop-color="#78B46A"/>
<stop offset="0.03" stop-color="#7F3500"/>
<stop offset="1" stop-color="white"/>
</linearGradient>
<linearGradient id="paint1_linear" x1="436.689" y1="693.859" x2="380.726" y2="756.667" gradientUnits="userSpaceOnUse">
<stop stop-color="#78B46A"/>
<stop offset="0.03" stop-color="#7F3500"/>
<stop offset="1" stop-color="white"/>
</linearGradient>
<linearGradient id="paint2_linear" x1="312.081" y1="435.492" x2="270.121" y2="482.59" gradientUnits="userSpaceOnUse">
<stop stop-color="#78B46A"/>
<stop offset="0.03" stop-color="#7F3500"/>
<stop offset="1" stop-color="white"/>
</linearGradient>
<linearGradient id="paint3_linear" x1="713.333" y1="436.107" x2="687.966" y2="417.173" gradientUnits="userSpaceOnUse">
<stop stop-color="white" stop-opacity="0"/>
<stop offset="0.99" stop-color="#DC841E"/>
</linearGradient>
<linearGradient id="paint4_linear" x1="217.019" y1="571.182" x2="160.237" y2="634.912" gradientUnits="userSpaceOnUse">
<stop stop-color="#78B46A"/>
<stop offset="0.03" stop-color="#7F3500"/>
<stop offset="1" stop-color="white"/>
</linearGradient>
<clipPath id="clip0">
<rect width="912" height="979" fill="white" transform="translate(35)"/>
</clipPath>
</defs>
</svg>
