<svg width="1315" height="1779" viewBox="0 0 1315 1779" fill="none" xmlns="http://www.w3.org/2000/svg">
<g clip-path="url(#clip0)">
<g opacity="0.099">
<path d="M309.07 1669.2L-382.145 1224.62C-404.151 1211.15 -423.013 1189.09 -401.572 1174.61L292.104 739.507C302.502 732.488 318.302 727.881 328.901 734.593L1054.37 1192.9C1076.38 1206.81 1080.33 1245.54 1058.41 1259.58L400.158 1668.5C386.343 1677.22 370.675 1681.87 354.7 1682C338.725 1682.12 322.997 1677.71 309.07 1669.2V1669.2Z" fill="#6862E6"/>
<path d="M309.07 1039.88L-382.145 595.299C-404.151 581.83 -423.013 559.765 -401.572 545.291L292.104 110.185C302.502 103.165 318.302 98.5594 328.901 105.271L1054.37 563.583C1076.38 577.488 1080.33 616.222 1058.41 630.259L400.158 1039.18C386.343 1047.9 370.675 1052.55 354.7 1052.68C338.725 1052.8 322.997 1048.39 309.07 1039.88V1039.88Z" stroke="#1E1F36" stroke-width="6"/>
<path d="M309.07 1165.41L-382.145 720.828C-404.151 707.36 -423.013 685.295 -401.572 670.821L292.104 235.715C302.502 228.695 318.302 224.089 328.901 230.801L1054.37 689.113C1076.38 703.018 1080.33 741.752 1058.41 755.789L400.158 1164.71C386.343 1173.43 370.675 1178.08 354.7 1178.21C338.725 1178.33 322.997 1173.92 309.07 1165.41V1165.41Z" stroke="#1E1F36" stroke-width="6"/>
</g>
<path d="M625.658 1345.53L220.897 1086C208.01 1078.14 196.965 1065.26 209.521 1056.81L615.723 802.819C621.812 798.722 631.064 796.033 637.27 799.95L1062.09 1067.49C1074.98 1075.61 1077.29 1098.22 1064.45 1106.41L679 1345.12C670.911 1350.21 661.735 1352.93 652.38 1353C643.026 1353.07 633.815 1350.5 625.66 1345.53H625.658Z" fill="#5B36A0"/>
<path d="M625.658 1333.55L220.897 1074.03C208.01 1066.16 196.965 1053.28 209.521 1044.83L615.723 790.84C621.812 786.743 631.064 784.054 637.27 787.971L1062.09 1055.51C1074.98 1063.63 1077.29 1086.24 1064.45 1094.43L679 1333.14C670.911 1338.23 661.735 1340.95 652.38 1341.02C643.026 1341.09 633.815 1338.52 625.66 1333.55H625.658Z" fill="#6862E6"/>
<path style="mix-blend-mode:multiply" opacity="0.25" d="M659.032 991.137L579.163 1040.58C579.163 1040.58 702.197 1122.04 727.355 1133.51L773.353 1061.81" fill="url(#paint0_linear)"/>
<path style="mix-blend-mode:multiply" opacity="0.25" d="M631.441 1228.36L551.55 1179.01L471.661 1228.46C471.661 1228.46 513.269 1256.01 553.037 1281.31C578.291 1261.93 603.567 1242.34 631.441 1228.36Z" fill="url(#paint1_linear)"/>
<path style="mix-blend-mode:multiply" opacity="0.46" d="M459.318 923.636L408.645 955.005C408.645 955.005 412.94 983.762 438.1 995.233L504.441 949.141" fill="url(#paint2_linear)"/>
<path d="M484.122 955.005C501.002 955.005 514.686 944.549 514.686 931.652C514.686 918.755 501.002 908.3 484.122 908.3C467.242 908.3 453.559 918.755 453.559 931.652C453.559 944.549 467.242 955.005 484.122 955.005Z" fill="#68E1FD"/>
<path d="M484.098 928.041C496.741 928.041 506.991 923.489 506.991 917.875C506.991 912.26 496.741 907.709 484.098 907.709C471.455 907.709 461.206 912.26 461.206 917.875C461.206 923.489 471.455 928.041 484.098 928.041Z" fill="#974C26"/>
<path d="M483.271 900.923C483.271 896.339 483.131 891.757 482.799 887.173C482.706 885.977 482.604 884.791 482.494 883.613L482.258 881.284C482.258 880.591 481.926 878.722 481.926 878.902C481.784 877.963 481.635 877.033 481.479 876.111C478.983 860.553 473.411 845.764 465.147 832.758C462.037 840.788 460.486 849.425 460.591 858.133C460.591 860.696 460.78 863.256 460.968 865.663V867.175C461.158 868.402 461.37 869.734 461.606 870.86C462.506 875.531 463.713 880.127 465.217 884.612C466.569 888.74 468.219 892.748 470.15 896.596C472.233 900.928 474.493 905.158 476.923 909.272C478.675 912.274 480.509 915.22 482.422 918.106C482.989 912.396 483.249 906.659 483.271 900.923ZM471.259 849.376C471.38 848.786 471.38 848.175 471.259 847.585C471.842 848.232 472.416 848.899 472.982 849.582C472.415 849.407 471.824 849.338 471.235 849.376H471.259Z" fill="#999A1C"/>
<path d="M491.13 904.456C493.47 900.631 495.622 896.674 497.575 892.601C498.094 891.543 498.597 890.485 499.085 889.427L500.053 887.301L500.974 885.099L501.987 882.537C507.644 867.968 510.326 852.244 509.846 836.445C503.211 841.377 497.587 847.741 493.326 855.138C492.103 857.272 490.961 859.459 489.903 861.694L489.432 862.641L489.314 863.052C488.866 864.204 488.417 865.356 487.993 866.534C486.427 870.996 485.157 875.575 484.192 880.233C483.274 884.503 482.667 888.844 482.376 893.216C481.959 898.076 481.754 902.955 481.762 907.836C481.762 911.652 481.762 915.135 481.974 918.489C485.113 913.957 488.275 909.296 491.13 904.456ZM506.709 854.038C507.077 853.587 507.352 853.054 507.51 852.475C507.683 853.363 507.833 854.218 507.96 855.036C507.591 854.637 507.168 854.301 506.707 854.038H506.709Z" fill="#999A1C"/>
<path d="M490.966 915.878C493.369 914.582 495.73 913.198 498.046 911.73L499.815 910.552L500.974 909.757L502.107 908.887L503.428 907.836C510.807 901.958 516.926 894.42 521.364 885.738C516.326 886.089 511.409 887.562 506.921 890.066C505.622 890.785 504.371 891.577 503.12 892.396L502.578 892.755L502.389 892.935L500.642 894.342C498.466 896.204 496.416 898.232 494.507 900.412C492.742 902.396 491.124 904.527 489.668 906.786C488.029 909.299 486.455 911.861 484.948 914.469C483.879 916.382 482.863 918.329 481.902 920.308C484.948 918.925 487.993 917.491 490.966 915.876V915.878ZM514.378 894.113C514.712 893.999 515.019 893.806 515.276 893.548C515.102 894.095 514.914 894.632 514.708 895.161C514.647 894.803 514.535 894.458 514.378 894.137V894.113ZM483.271 900.923C483.271 896.339 483.131 891.757 482.8 887.173C482.706 885.977 482.604 884.791 482.494 883.613L482.258 881.284C482.258 880.591 481.926 878.722 481.926 878.902C481.784 877.963 481.635 877.033 481.479 876.111C478.983 860.553 473.411 845.764 465.147 832.758C462.037 840.787 460.486 849.425 460.591 858.133C460.591 860.696 460.78 863.256 460.968 865.663V867.175C461.158 868.402 461.37 869.734 461.606 870.86C462.506 875.531 463.713 880.127 465.217 884.612C466.569 888.74 468.219 892.748 470.15 896.596C472.233 900.928 474.493 905.158 476.923 909.272C478.675 912.274 480.509 915.22 482.422 918.106C482.989 912.396 483.249 906.658 483.271 900.923ZM471.259 849.376C471.38 848.786 471.38 848.175 471.259 847.585C471.842 848.232 472.416 848.899 472.982 849.582C472.415 849.407 471.824 849.338 471.235 849.376H471.259Z" fill="#999A1C"/>
<path d="M491.13 904.456C493.47 900.631 495.622 896.674 497.575 892.601C498.094 891.543 498.597 890.485 499.085 889.427L500.053 887.301L500.974 885.099L501.987 882.537C507.644 867.968 510.326 852.244 509.846 836.445C503.211 841.377 497.587 847.741 493.326 855.138C492.103 857.272 490.961 859.459 489.903 861.694L489.432 862.641L489.314 863.052C488.866 864.204 488.417 865.356 487.993 866.534C486.427 870.996 485.157 875.575 484.192 880.233C483.274 884.503 482.667 888.844 482.376 893.216C481.959 898.076 481.754 902.955 481.762 907.836C481.762 911.652 481.762 915.135 481.974 918.489C485.113 913.957 488.275 909.296 491.13 904.456ZM506.709 854.038C507.077 853.587 507.352 853.054 507.51 852.475C507.683 853.363 507.833 854.218 507.96 855.036C507.591 854.637 507.168 854.301 506.707 854.038H506.709Z" fill="#999A1C"/>
<path d="M490.966 915.878C493.369 914.582 495.73 913.198 498.046 911.73L499.815 910.552L500.974 909.757L502.107 908.887L503.428 907.836C510.807 901.958 516.926 894.42 521.364 885.738C516.326 886.089 511.409 887.562 506.921 890.066C505.622 890.785 504.371 891.577 503.12 892.396L502.578 892.755L502.389 892.935L500.642 894.342C498.466 896.204 496.416 898.233 494.507 900.412C492.742 902.396 491.124 904.527 489.667 906.786C488.029 909.299 486.455 911.861 484.948 914.469C483.879 916.382 482.863 918.329 481.902 920.308C484.948 918.925 487.993 917.491 490.966 915.876V915.878ZM514.378 894.113C514.712 893.999 515.019 893.806 515.275 893.548C515.102 894.095 514.914 894.632 514.708 895.161C514.647 894.803 514.535 894.458 514.378 894.137V894.113Z" fill="#999A1C"/>
<path d="M690.75 971.829L646.546 994.874C644.88 995.744 643.464 997.089 642.45 998.764C641.435 1000.44 640.861 1002.38 640.788 1004.39C640.715 1006.39 641.147 1008.38 642.037 1010.13C642.927 1011.89 644.241 1013.35 645.839 1014.36L750.605 1080.68C752.869 1082.12 755.558 1082.55 758.109 1081.89C760.66 1081.22 762.876 1079.52 764.293 1077.12L789.759 1034.15" fill="#A1482D"/>
<path d="M931.177 860.67L578.691 640.297C576.273 638.789 573.532 637.997 570.743 638C567.953 638.004 565.214 638.803 562.799 640.317C560.383 641.833 558.378 644.011 556.984 646.632C555.589 649.253 554.855 652.225 554.855 655.251V884.51C554.855 887.026 555.465 889.498 556.625 891.678C557.785 893.857 559.454 895.668 561.464 896.928L937.242 1132.28C938.538 1133.09 940.01 1133.52 941.508 1133.53C943.007 1133.53 944.479 1133.1 945.776 1132.29C947.073 1131.47 948.15 1130.3 948.898 1128.89C949.646 1127.49 950.038 1125.89 950.035 1124.26V895.956C950.031 888.797 948.286 881.766 944.975 875.571C941.664 869.376 936.905 864.237 931.177 860.67Z" fill="#F47B56"/>
<path d="M578.715 657.634L920.556 871.016C924.207 873.299 927.239 876.583 929.348 880.538C931.456 884.493 932.567 888.98 932.568 893.548V1065.39C932.566 1067.04 932.166 1068.65 931.409 1070.08C930.651 1071.5 929.562 1072.68 928.25 1073.51C926.939 1074.33 925.451 1074.77 923.935 1074.78C922.419 1074.78 920.929 1074.35 919.613 1073.54L570.998 856.597C569.692 855.785 568.608 854.614 567.854 853.203C567.1 851.791 566.703 850.189 566.703 848.558V665.187C566.703 662.083 568.227 659.214 570.703 657.656C571.919 656.891 573.3 656.486 574.707 656.482C576.114 656.478 577.497 656.876 578.717 657.634H578.715Z" fill="white"/>
<path d="M722.55 981.765C726.583 980.923 729.132 976.189 728.243 971.19C727.355 966.191 723.366 962.82 719.334 963.662C715.301 964.503 712.752 969.238 713.641 974.237C714.529 979.236 718.518 982.606 722.55 981.765Z" fill="#AB643C"/>
<path opacity="0.32" d="M670.596 890.783L829.457 994.337L907.929 944.839L767.714 856.29" fill="url(#paint3_linear)"/>
<path d="M866.911 870.169L695.165 756.551C694.245 755.974 693.2 755.675 692.138 755.685C691.076 755.695 690.036 756.013 689.126 756.607C688.215 757.2 687.467 758.047 686.96 759.06C686.453 760.072 686.205 761.213 686.242 762.365V827.102C686.235 828.272 686.507 829.425 687.032 830.448C687.558 831.471 688.318 832.329 689.24 832.939L860.964 944.15C862.801 945.282 865.054 945.268 866.878 944.11C867.774 943.542 868.518 942.728 869.033 941.75C869.548 940.773 869.818 939.666 869.814 938.54L870.711 878.187C870.778 876.608 870.462 875.037 869.795 873.631C869.128 872.225 868.134 871.032 866.911 870.171V870.169Z" fill="#E2AC00"/>
<path d="M825.822 903.484C831.981 912.83 842.814 915.443 849.989 909.348C857.163 903.253 857.99 890.733 851.832 881.411C845.669 872.09 834.836 869.453 827.661 875.548C820.487 881.641 819.661 894.137 825.822 903.484Z" fill="white"/>
<path d="M808.97 858.622L738.921 812.863C738.319 812.557 737.634 812.506 736.999 812.72C736.365 812.933 735.827 813.396 735.491 814.017C735.154 814.638 735.043 815.374 735.18 816.079C735.317 816.784 735.692 817.408 736.231 817.83L806.279 863.589C806.881 863.894 807.566 863.945 808.2 863.732C808.835 863.519 809.373 863.056 809.709 862.435C810.046 861.814 810.157 861.079 810.021 860.374C809.884 859.668 809.509 859.044 808.97 858.622ZM806.091 877.213L709.536 814.143C708.945 813.923 708.301 813.934 707.717 814.176C707.133 814.417 706.645 814.873 706.339 815.464C706.033 816.055 705.928 816.744 706.042 817.41C706.157 818.076 706.483 818.678 706.964 819.11L803.399 882.204C804.001 882.509 804.686 882.56 805.321 882.347C805.955 882.134 806.494 881.671 806.83 881.05C807.167 880.429 807.278 879.694 807.141 878.988C807.004 878.283 806.63 877.659 806.091 877.237V877.211V877.213Z" fill="#F2F2F2"/>
<path d="M832.642 882.717L660.99 769.125C660.071 768.548 659.026 768.249 657.963 768.259C656.901 768.269 655.861 768.587 654.951 769.181C654.04 769.774 653.292 770.621 652.785 771.634C652.278 772.646 652.031 773.787 652.068 774.938V839.645C652.054 840.818 652.32 841.975 652.842 843.003C653.363 844.031 654.122 844.895 655.043 845.511L826.765 956.72C828.622 957.878 830.91 957.858 832.749 956.67C833.653 956.085 834.397 955.25 834.905 954.251C835.413 953.252 835.667 952.124 835.64 950.984L836.537 890.631C836.577 889.059 836.238 887.503 835.556 886.116C834.873 884.728 833.869 883.557 832.642 882.717Z" fill="#F47B56"/>
<path d="M791.552 916.032C797.712 925.377 808.545 927.991 815.721 921.895C822.895 915.8 823.72 903.278 817.561 893.959C811.401 884.636 800.568 882 793.394 888.093C786.218 894.189 785.393 906.684 791.552 916.032Z" fill="white"/>
<path d="M774.7 871.168L704.604 825.409C704.003 825.103 703.318 825.052 702.683 825.266C702.049 825.479 701.51 825.942 701.174 826.563C700.837 827.184 700.727 827.919 700.864 828.625C701.001 829.33 701.375 829.954 701.915 830.376L771.963 876.135C772.564 876.44 773.249 876.491 773.884 876.278C774.518 876.064 775.057 875.602 775.393 874.981C775.73 874.36 775.841 873.624 775.704 872.919C775.568 872.214 775.193 871.589 774.654 871.168H774.7ZM771.799 889.886L675.268 826.714C674.666 826.409 673.981 826.358 673.346 826.572C672.711 826.786 672.173 827.249 671.837 827.87C671.501 828.492 671.39 829.227 671.527 829.932C671.664 830.637 672.039 831.262 672.578 831.684L769.131 894.752C769.733 895.057 770.418 895.108 771.052 894.895C771.687 894.681 772.225 894.219 772.561 893.598C772.898 892.976 773.009 892.241 772.872 891.536C772.735 890.831 772.36 890.206 771.821 889.784L771.799 889.886Z" fill="#F2F2F2"/>
<path d="M789.571 890.349L617.869 776.757C616.95 776.18 615.905 775.881 614.843 775.89C613.781 775.9 612.74 776.218 611.83 776.811C610.919 777.405 610.172 778.252 609.665 779.264C609.159 780.277 608.911 781.418 608.949 782.569V847.278C608.941 848.448 609.214 849.601 609.739 850.624C610.264 851.647 611.024 852.505 611.946 853.115L783.668 964.326C785.525 965.484 787.814 965.464 789.654 964.274C790.557 963.69 791.301 962.855 791.809 961.856C792.316 960.857 792.57 959.73 792.543 958.59L793.44 898.235C793.478 896.671 793.142 895.122 792.464 893.74C791.786 892.359 790.789 891.19 789.571 890.349Z" fill="#68E1FD"/>
<path d="M789.571 890.349L617.869 776.757C616.95 776.18 615.905 775.881 614.843 775.89C613.781 775.9 612.74 776.218 611.83 776.811C610.919 777.405 610.172 778.252 609.665 779.264C609.159 780.277 608.911 781.418 608.949 782.569V847.278C608.941 848.448 609.214 849.601 609.739 850.624C610.264 851.647 611.024 852.505 611.946 853.115L783.668 964.326C785.525 965.484 787.814 965.464 789.654 964.274C790.557 963.69 791.301 962.855 791.809 961.856C792.316 960.857 792.57 959.73 792.543 958.59L793.44 898.235C793.478 896.671 793.142 895.122 792.464 893.74C791.786 892.359 790.789 891.19 789.571 890.349Z" fill="#68E1FD"/>
<path d="M748.457 923.662C754.615 933.008 765.45 935.621 772.624 929.526C779.8 923.431 780.625 910.909 774.466 901.59C768.306 892.268 757.471 889.631 750.297 895.726C743.123 901.819 742.368 914.315 748.455 923.662H748.457Z" fill="white"/>
<path d="M731.605 878.8L661.533 833.041C660.932 832.736 660.247 832.685 659.612 832.898C658.978 833.112 658.439 833.574 658.103 834.195C657.766 834.816 657.655 835.551 657.792 836.257C657.929 836.962 658.303 837.586 658.842 838.008L728.891 883.767C729.493 884.073 730.178 884.124 730.813 883.91C731.447 883.697 731.986 883.234 732.322 882.613C732.659 881.992 732.769 881.256 732.632 880.551C732.495 879.846 732.121 879.222 731.581 878.8H731.605ZM728.702 897.417L632.149 834.345C631.547 834.04 630.862 833.989 630.227 834.203C629.592 834.416 629.054 834.879 628.719 835.501C628.382 836.122 628.271 836.858 628.408 837.563C628.545 838.268 628.92 838.892 629.459 839.314L726.012 902.382C726.614 902.688 727.299 902.739 727.933 902.525C728.568 902.312 729.106 901.849 729.442 901.228C729.779 900.607 729.89 899.871 729.753 899.166C729.616 898.461 729.241 897.837 728.702 897.415V897.417Z" fill="#F2F2F2"/>
<path d="M564.225 883.997C553.128 894.362 544.737 907.704 539.892 922.688C531.348 948.297 552.707 990.136 552.707 990.136L585.938 961.587" fill="#FF8F6F"/>
<path d="M560.636 1222.54L551.622 1217.14L553.98 1203.16C553.98 1203.16 567.411 1204.54 568.59 1209.71" fill="#003B94"/>
<path d="M563.942 1222.34C565.972 1220.98 568.096 1219.78 570.196 1218.57C575.41 1215.48 582.941 1212.28 586.15 1206.46C586.808 1205.29 587.12 1203.92 587.044 1202.55C586.969 1201.18 586.509 1199.86 585.727 1198.78C581.005 1192.58 570.668 1202.77 565.38 1195.91C564.343 1194.56 563.848 1173.02 563.848 1173.02L543.739 1178.91C543.739 1178.91 540.34 1222.18 540.718 1224.85C541.095 1227.51 548.011 1229.97 548.011 1229.97C550.071 1229.5 552.036 1228.63 553.816 1227.41C555.916 1225.74 554.004 1205.44 556.696 1208.28C559.386 1211.12 560.565 1222.24 560.565 1222.24C561.683 1222.42 562.816 1222.46 563.942 1222.34V1222.34Z" fill="#F47B56"/>
<path d="M599.037 1243.46L590.021 1238.14L592.379 1224.16C592.379 1224.16 605.81 1225.54 606.989 1230.71" fill="#003B94"/>
<path d="M602.434 1243.26C604.465 1241.9 606.589 1240.7 608.689 1239.5C613.905 1236.4 621.434 1233.2 624.643 1227.38C625.301 1226.21 625.613 1224.84 625.537 1223.47C625.461 1222.1 625.002 1220.78 624.22 1219.7C619.498 1213.5 609.161 1223.7 603.875 1216.83C602.836 1215.48 602.34 1193.94 602.34 1193.94L582.232 1199.83C582.232 1199.83 578.811 1243.26 579.188 1245.82C579.566 1248.38 586.48 1250.94 586.48 1250.94C588.54 1250.47 590.506 1249.6 592.287 1248.38C594.387 1246.72 592.475 1226.41 595.167 1229.25C597.856 1232.09 599.035 1243.21 599.035 1243.21C600.162 1243.38 601.304 1243.39 602.434 1243.26Z" fill="#F47B56"/>
<path d="M533.52 1102.78L527.595 1188.74C527.595 1188.74 537.037 1202.88 568.685 1195.02L568.991 1137.07L533.52 1102.78ZM570.078 1119.81C569.393 1127.21 570.078 1208.84 570.078 1208.84C570.078 1208.84 578.833 1226.61 616.95 1208.84L616.406 1139.48" fill="#3E2928"/>
<path d="M530.568 1131.18C533.166 1133.12 534.061 1123.11 536.777 1124.83C546.65 1131.05 557.13 1136.07 568.024 1139.78H568.26C568.519 1139.65 568.802 1139.57 569.09 1139.55C569.378 1139.53 569.667 1139.58 569.938 1139.69C570.209 1139.8 570.457 1139.96 570.668 1140.18C570.878 1140.39 571.047 1140.65 571.163 1140.93C577.893 1143.11 584.743 1144.82 591.674 1146.06C600.572 1147.59 607.934 1140.45 617.068 1139.96C617.068 1102.01 617.234 994.004 602.34 970.958L558.276 954.877C558.065 958.82 536.895 985.451 537.412 1017.92C538.002 1054.51 533.614 1089.03 532.858 1100.48C532.74 1102.42 530.664 1129.11 530.568 1131.18Z" fill="#3E2928"/>
<path d="M606.399 927.324L602.34 970.855C602.34 970.855 569.465 972.29 555.303 961.689V924.762" fill="#FF8F6F"/>
<path d="M648.197 898.671L644.846 903.638C646.633 899.597 648.21 895.452 649.566 891.22C650.511 888.325 646.239 887.173 645.295 890.066L644.798 891.551C645.209 890.014 645.594 888.471 645.955 886.916C646.03 886.61 646.048 886.291 646.008 885.977C645.968 885.664 645.871 885.362 645.723 885.09C645.574 884.817 645.377 884.579 645.143 884.39C644.909 884.201 644.642 884.064 644.359 883.988C644.075 883.912 643.781 883.897 643.492 883.945C643.204 883.993 642.927 884.103 642.678 884.269C642.429 884.434 642.212 884.651 642.042 884.908C641.871 885.164 641.749 885.455 641.683 885.764C640.757 889.782 639.647 893.748 638.355 897.647C639.077 894.185 639.598 890.677 639.914 887.145C640.198 884.101 635.784 884.228 635.524 887.145C635.157 891.166 634.495 895.148 633.542 899.054C633.542 897.688 633.424 896.323 633.188 894.957C633.156 894.617 633.057 894.287 632.898 893.991C632.739 893.695 632.524 893.439 632.267 893.24C632.147 892.705 632.006 892.175 631.843 891.653C631.676 891.116 631.341 890.661 630.894 890.366C630.448 890.072 629.92 889.957 629.404 890.043C628.887 890.129 628.416 890.41 628.071 890.836C627.727 891.262 627.533 891.806 627.523 892.372L627.239 910.296C626.441 912.153 625.399 913.88 624.148 915.417C626.272 917.011 628.32 918.72 630.284 920.538C632.037 922.145 633.707 923.855 635.288 925.659C636.699 923.754 638.06 921.808 639.371 919.821C639.533 919.671 639.676 919.5 639.794 919.308C643.725 912.997 647.786 906.781 651.974 900.667C653.72 898.567 649.874 896.237 648.197 898.671Z" fill="#FFB5A9"/>
<path d="M585.537 887.634C585.537 887.634 601.067 892.166 607.368 902.997C611.315 910.495 614.792 918.272 617.777 926.276L629.245 906.94C629.245 906.94 643.171 911.576 648.693 919.003C648.693 919.003 632.173 958.179 617.775 961.535C603.38 964.889 588.085 938.54 588.085 938.54C588.085 938.54 584.923 949.55 585.537 937.797" fill="#FF8F6F"/>
<path d="M595.402 929.5C590.888 925.514 587.481 920.249 585.561 914.291C583.695 907.403 586.032 901.358 588.203 894.957C590.554 888.611 591.925 881.889 592.263 875.061C592.451 868.353 591.744 861.644 591.318 854.958C591.257 854.672 591.257 854.374 591.318 854.088C589.242 846.535 584.993 840.133 576.617 839.364C554.925 837.368 553.698 863.435 553.864 874.036C554.03 884.638 555.067 891.807 547.869 896.237C540.67 900.667 535.478 912.293 542.346 921.692C549.214 931.087 543.054 927.657 538.475 936.004C533.897 944.352 535.076 954.775 544.47 958.538C553.864 962.302 597.527 955.234 601.537 950.856C602.961 949.092 603.698 946.797 603.591 944.455C602.613 938.565 599.705 933.255 595.402 929.502V929.5Z" fill="#007F68"/>
<path d="M616.738 714.506C620.415 720.247 622.539 726.988 622.873 733.967C623.284 737.162 622.569 740.408 620.868 743.057C620.145 743.921 619.176 744.498 618.116 744.698C617.055 744.898 615.963 744.708 615.014 744.159C613.821 743.643 612.743 742.858 611.852 741.855C611.051 741.039 610.367 740.099 609.822 739.064L609.256 737.86C609.102 738.175 608.911 738.467 608.689 738.731C608.127 739.205 607.46 739.514 606.755 739.627C605.574 739.864 604.355 739.703 603.262 739.166C600.652 737.94 598.481 735.828 597.077 733.148C595.384 730.235 594.439 726.885 594.339 723.444C594.167 722.067 594.274 720.666 594.653 719.339C595.033 718.012 595.675 716.791 596.535 715.761C597.283 714.979 598.234 714.465 599.261 714.291C600.287 714.117 601.338 714.29 602.27 714.787C603.216 715.196 604.087 715.785 604.842 716.53C605.487 717.123 606.056 717.802 606.541 718.552L606.965 719.371V717.093L611.686 719.089L612.158 733.482C612.191 734.512 612.486 735.512 613.009 736.375C613.451 737.207 614.131 737.862 614.944 738.243C617.224 739.218 618.278 737.083 618.107 731.843C617.869 726.653 616.291 721.639 613.551 717.374C611.091 713.038 607.433 709.652 603.096 707.696C601.522 706.828 599.744 706.493 597.993 706.735C596.242 706.977 594.598 707.785 593.276 709.053C591.866 710.591 590.793 712.452 590.136 714.5C589.478 716.547 589.253 718.728 589.478 720.882C589.747 726.371 591.377 731.679 594.198 736.247C596.441 740.756 599.979 744.351 604.275 746.489C605.771 747.168 607.377 747.507 608.997 747.487C610.05 747.565 611.105 747.354 612.064 746.874L613.009 746.309L615.865 752.071L615.391 752.43C614.943 752.703 614.479 752.943 614 753.147C613.245 753.5 612.453 753.742 611.639 753.866C610.597 754.017 609.542 754.017 608.501 753.866C607.133 753.688 605.792 753.318 604.513 752.764C600.877 751.067 597.647 748.492 595.071 745.235C592.016 741.571 589.544 737.382 587.755 732.841C585.963 728.502 584.938 723.838 584.734 719.089C584.479 715.097 585.231 711.106 586.906 707.542C588.295 704.552 590.696 702.258 593.608 701.139C596.658 700.05 599.974 700.233 602.906 701.652C608.635 704.28 613.468 708.771 616.738 714.506ZM606.329 732.713C607.103 731.639 607.453 730.276 607.296 728.922C607.259 727.254 606.828 725.624 606.045 724.186C605.406 722.932 604.402 721.941 603.19 721.369C602.725 721.109 602.198 721.009 601.679 721.082C601.16 721.155 600.674 721.398 600.286 721.779C599.879 722.282 599.576 722.873 599.397 723.514C599.218 724.154 599.168 724.829 599.249 725.492C599.303 727.181 599.765 728.824 600.594 730.254C601.276 731.555 602.326 732.579 603.591 733.174C604.034 733.42 604.538 733.508 605.029 733.425C605.521 733.343 605.976 733.093 606.329 732.713ZM895.398 991.775C899.081 997.514 901.206 1004.26 901.533 1011.24C901.945 1014.43 901.229 1017.68 899.529 1020.33C898.803 1021.19 897.835 1021.76 896.776 1021.96C895.717 1022.16 894.626 1021.97 893.676 1021.43C892.486 1020.91 891.409 1020.12 890.512 1019.12C889.715 1018.3 889.031 1017.36 888.482 1016.33L887.917 1015.13C887.756 1015.44 887.567 1015.73 887.349 1016C886.789 1016.48 886.122 1016.79 885.415 1016.9C884.245 1017.15 883.031 1017 881.946 1016.46C879.333 1015.23 877.161 1013.11 875.761 1010.42C874.052 1007.5 873.099 1004.14 873 1000.69C872.82 999.311 872.924 997.908 873.304 996.58C873.684 995.252 874.33 994.031 875.196 993.005C875.939 992.225 876.887 991.713 877.909 991.539C878.931 991.365 879.978 991.538 880.907 992.033C881.854 992.44 882.725 993.029 883.479 993.774C884.123 994.377 884.694 995.066 885.179 995.822L885.627 996.641V994.363L890.347 996.333L890.82 1010.73C890.861 1011.75 891.154 1012.75 891.668 1013.62C892.113 1014.45 892.791 1015.11 893.604 1015.49C895.964 1016.46 896.933 1014.34 896.791 1009.09C896.551 1003.89 894.973 998.868 892.235 994.592C889.775 990.272 886.127 986.896 881.804 984.94C880.232 984.072 878.456 983.735 876.706 983.972C874.955 984.21 873.311 985.01 871.984 986.271C870.581 987.827 869.52 989.705 868.879 991.767C868.238 993.828 868.034 996.019 868.281 998.178C868.546 1003.67 870.176 1008.98 873 1013.54C875.331 1017.94 878.906 1021.42 883.197 1023.45C884.692 1024.13 886.296 1024.47 887.917 1024.48C888.97 1024.54 890.022 1024.33 890.984 1023.86L891.929 1023.3L894.785 1029.06L894.313 1029.42C893.864 1029.69 893.399 1029.93 892.92 1030.14C892.161 1030.47 891.369 1030.71 890.56 1030.85C889.511 1031 888.447 1031 887.397 1030.85C886.036 1030.67 884.703 1030.29 883.432 1029.73C879.799 1028.04 876.57 1025.47 873.991 1022.22C870.936 1018.55 868.465 1014.35 866.677 1009.8C864.883 1005.47 863.858 1000.8 863.655 996.052C863.399 992.068 864.149 988.084 865.826 984.528C867.219 981.536 869.617 979.236 872.528 978.102C875.588 977.023 878.907 977.205 881.85 978.615C887.512 981.38 892.245 985.977 895.398 991.775ZM884.989 1009.98C885.377 1009.45 885.664 1008.85 885.835 1008.19C886.005 1007.54 886.054 1006.86 885.98 1006.19C885.939 1004.52 885.501 1002.89 884.707 1001.46C884.079 1000.2 883.082 999.209 881.874 998.639C881.412 998.376 880.886 998.272 880.368 998.34C879.85 998.409 879.363 998.647 878.972 999.023C878.558 999.521 878.248 1000.11 878.064 1000.75C877.881 1001.39 877.828 1002.07 877.909 1002.74C877.965 1004.42 878.427 1006.05 879.254 1007.47C879.934 1008.78 880.986 1009.81 882.252 1010.42C882.692 1010.67 883.194 1010.76 883.686 1010.68C884.177 1010.6 884.633 1010.36 884.989 1009.98Z" fill="#F47B56"/>
<path style="mix-blend-mode:multiply" opacity="0.25" d="M425.071 1100.96L345.18 1051.64L265.315 1101.06C265.315 1101.06 309.754 1131.18 349.524 1156.48C374.776 1137.12 397.221 1114.97 425.071 1100.96V1100.96Z" fill="url(#paint4_linear)"/>
</g>
<defs>
<linearGradient id="paint0_linear" x1="697.97" y1="1043.56" x2="669.551" y2="1079.14" gradientUnits="userSpaceOnUse">
<stop stop-color="#78B46A"/>
<stop offset="0.03" stop-color="#7F3500"/>
<stop offset="1" stop-color="white"/>
</linearGradient>
<linearGradient id="paint1_linear" x1="602.978" y1="1208.19" x2="544.351" y2="1267.58" gradientUnits="userSpaceOnUse">
<stop stop-color="#78B46A"/>
<stop offset="0.03" stop-color="#7F3500"/>
<stop offset="1" stop-color="white"/>
</linearGradient>
<linearGradient id="paint2_linear" x1="485.914" y1="939.29" x2="441.956" y2="983.829" gradientUnits="userSpaceOnUse">
<stop stop-color="#78B46A"/>
<stop offset="0.03" stop-color="#7F3500"/>
<stop offset="1" stop-color="white"/>
</linearGradient>
<linearGradient id="paint3_linear" x1="862.874" y1="939.931" x2="837.352" y2="922.735" gradientUnits="userSpaceOnUse">
<stop stop-color="white" stop-opacity="0"/>
<stop offset="0.99" stop-color="#DC841E"/>
</linearGradient>
<linearGradient id="paint4_linear" x1="396.607" y1="1080.51" x2="337.122" y2="1140.78" gradientUnits="userSpaceOnUse">
<stop stop-color="#78B46A"/>
<stop offset="0.03" stop-color="#7F3500"/>
<stop offset="1" stop-color="white"/>
</linearGradient>
<clipPath id="clip0">
<rect width="1315" height="1779" fill="white"/>
</clipPath>
</defs>
</svg>
