<svg width="1001" height="870" viewBox="0 0 1001 870" fill="none" xmlns="http://www.w3.org/2000/svg">
<path opacity="0.099" d="M485.415 861.912L19.7476 599.973C4.91779 592.039 -7.7875 579.037 6.65904 570.511L473.98 314.155C480.987 310.021 491.63 307.306 498.77 311.258L987.52 581.289C1002.35 589.478 1005.01 612.3 990.236 620.574L546.78 861.495C537.519 866.629 526.947 869.375 516.158 869.447C505.369 869.52 494.755 866.917 485.415 861.908V861.912Z" fill="#6862E6"/>
<path d="M486.712 705.597L31.3899 446.871C16.8946 439.035 4.46715 426.193 18.5951 417.77L475.535 164.55C482.386 160.461 492.791 157.782 499.775 161.692L977.665 428.412C992.16 436.502 994.761 459.046 980.319 467.212L546.715 705.192C537.612 710.268 527.291 712.975 516.769 713.046C506.247 713.117 495.888 710.55 486.712 705.597V705.597Z" fill="#5B36A0"/>
<path d="M486.712 693.656L31.3899 434.923C16.8946 427.083 4.46715 414.241 18.5951 405.817L475.535 152.601C482.386 148.517 492.791 145.837 499.775 149.743L977.665 416.464C992.16 424.558 994.761 447.098 980.319 455.267L546.715 693.243C537.613 698.32 527.292 701.028 516.77 701.1C506.248 701.171 495.888 698.604 486.712 693.652V693.656Z" fill="#6862E6"/>
<path style="mix-blend-mode:multiply" opacity="0.25" d="M524.254 352.29L434.41 401.585C434.41 401.585 572.813 482.792 601.114 494.229L652.858 422.748" fill="url(#paint0_linear)"/>
<path style="mix-blend-mode:multiply" opacity="0.25" d="M493.216 588.786L403.347 539.59L313.478 588.885C313.478 588.885 360.282 616.355 405.023 641.578C433.427 622.254 461.861 602.724 493.216 588.782V588.786Z" fill="url(#paint1_linear)"/>
<path style="mix-blend-mode:multiply" opacity="0.46" d="M299.594 284.997L242.591 316.27C242.591 316.27 247.42 344.939 275.726 356.375L350.356 310.423" fill="url(#paint2_linear)"/>
<path d="M327.495 316.27C346.483 316.27 361.876 305.846 361.876 292.988C361.876 280.13 346.483 269.706 327.495 269.706C308.507 269.706 293.114 280.13 293.114 292.988C293.114 305.846 308.507 316.27 327.495 316.27Z" fill="#68E1FD"/>
<path d="M327.47 289.387C341.694 289.387 353.225 284.85 353.225 279.253C353.225 273.656 341.694 269.118 327.47 269.118C313.246 269.118 301.715 273.656 301.715 279.253C301.715 284.85 313.246 289.387 327.47 289.387Z" fill="#974C26"/>
<path d="M326.541 262.354C326.541 257.785 326.38 253.212 326.009 248.643C325.901 247.452 325.786 246.269 325.662 245.094L325.398 242.772C325.398 242.085 325.027 240.219 325.027 240.398C324.866 239.461 324.696 238.532 324.523 237.619C321.714 222.106 315.447 207.361 306.152 194.398C302.654 202.402 300.909 211.014 301.026 219.696C301.026 222.249 301.236 224.801 301.451 227.199V228.707C302.497 234.63 304.097 240.449 306.231 246.094C307.752 250.21 309.606 254.203 311.778 258.039C314.121 262.358 316.663 266.574 319.397 270.675C321.522 273.89 323.541 276.748 325.588 279.483C326.223 273.791 326.512 268.07 326.537 262.354H326.541ZM313.028 210.963C313.165 210.375 313.165 209.765 313.028 209.177C313.68 209.824 314.328 210.487 314.968 211.17C314.329 210.994 313.663 210.925 312.999 210.963H313.028Z" fill="#999A1C"/>
<path d="M335.382 265.875C338.036 262.025 340.376 258.214 342.63 254.058C343.212 253.002 343.781 251.946 344.33 250.89L345.416 248.77L346.452 246.575L347.595 244.022C353.958 229.5 356.974 213.824 356.436 198.074C348.973 202.988 342.646 209.332 337.85 216.707C336.474 218.835 335.189 221.016 333.999 223.245L333.471 224.186L333.335 224.595C332.831 225.746 332.328 226.897 331.849 228.068C330.088 232.516 328.661 237.08 327.577 241.724C326.543 245.981 325.859 250.309 325.53 254.669C325.061 259.515 324.831 264.379 324.841 269.245C324.841 273.048 324.841 276.522 325.08 279.864C328.609 275.347 332.167 270.702 335.382 265.875V265.875ZM352.903 215.612C353.319 215.163 353.629 214.631 353.807 214.051C354 214.937 354.17 215.79 354.31 216.608C353.897 216.211 353.423 215.874 352.907 215.612H352.903Z" fill="#999A1C"/>
<path d="M335.196 277.26C337.867 275.986 340.521 274.608 343.162 273.128L345.152 271.953L346.452 271.159L347.727 270.293L349.213 269.245C357.513 263.388 364.397 255.872 369.391 247.214C363.724 247.564 358.193 249.033 353.142 251.529C351.681 252.243 350.274 253.037 348.866 253.851L348.259 254.208L348.045 254.387L346.08 255.792C343.633 257.646 341.325 259.671 339.179 261.842C337.194 263.819 335.374 265.947 333.731 268.197C331.889 270.704 330.119 273.258 328.423 275.859C327.152 277.899 326.009 279.813 324.998 281.678C328.423 280.301 331.849 278.868 335.192 277.26H335.196ZM361.529 255.562C361.905 255.45 362.25 255.259 362.54 255.002C362.347 255.545 362.135 256.081 361.904 256.61C361.835 256.254 361.71 255.91 361.533 255.59V255.562H361.529ZM326.541 262.354C326.541 257.785 326.38 253.212 326.009 248.643C325.902 247.452 325.786 246.269 325.662 245.094L325.398 242.772C325.398 242.085 325.027 240.219 325.027 240.398C324.866 239.461 324.696 238.532 324.523 237.619C321.714 222.106 315.447 207.361 306.152 194.398C302.654 202.402 300.909 211.014 301.026 219.696C301.026 222.249 301.236 224.801 301.451 227.199V228.707C302.497 234.63 304.097 240.449 306.231 246.094C307.752 250.21 309.606 254.203 311.778 258.039C314.121 262.358 316.663 266.574 319.397 270.675C321.522 273.89 323.541 276.748 325.588 279.483C326.223 273.791 326.512 268.07 326.537 262.354H326.541ZM313.028 210.963C313.165 210.375 313.165 209.765 313.028 209.177C313.68 209.824 314.328 210.487 314.968 211.17C314.329 210.994 313.663 210.925 312.999 210.963H313.028Z" fill="#999A1C"/>
<path d="M335.382 265.875C338.036 262.025 340.376 258.214 342.63 254.058C343.212 253.002 343.781 251.946 344.33 250.89L345.416 248.77L346.452 246.575L347.595 244.022C353.958 229.5 356.974 213.824 356.436 198.074C348.973 202.988 342.646 209.332 337.85 216.707C336.474 218.835 335.189 221.016 333.999 223.245L333.471 224.186L333.335 224.595C332.831 225.746 332.328 226.897 331.849 228.068C330.088 232.516 328.661 237.08 327.577 241.724C326.543 245.981 325.859 250.309 325.53 254.669C325.061 259.515 324.831 264.379 324.841 269.245C324.841 273.048 324.841 276.522 325.08 279.864C328.609 275.347 332.167 270.702 335.382 265.875V265.875ZM352.903 215.612C353.319 215.163 353.629 214.631 353.807 214.051C354 214.937 354.17 215.79 354.31 216.608C353.897 216.211 353.423 215.874 352.907 215.612H352.903Z" fill="#999A1C"/>
<path d="M335.196 277.26C337.867 275.986 340.521 274.608 343.162 273.128L345.151 271.953L346.452 271.159L347.727 270.293L349.213 269.245C357.513 263.388 364.396 255.872 369.391 247.214C363.724 247.564 358.193 249.033 353.142 251.529C351.681 252.243 350.273 253.037 348.866 253.851L348.259 254.208L348.045 254.387L346.08 255.792C343.633 257.646 341.325 259.671 339.179 261.842C337.194 263.819 335.374 265.947 333.731 268.197C331.889 270.704 330.119 273.258 328.423 275.859C327.152 277.899 326.009 279.813 324.998 281.678C328.423 280.301 331.849 278.868 335.192 277.26H335.196ZM361.529 255.562C361.905 255.45 362.25 255.259 362.54 255.002C362.347 255.545 362.135 256.081 361.904 256.61C361.835 256.254 361.71 255.91 361.533 255.59V255.562H361.529Z" fill="#999A1C"/>
<path d="M559.935 333.042L510.209 356.018C508.336 356.884 506.744 358.225 505.603 359.895C504.463 361.566 503.817 363.504 503.735 365.501C503.653 367.498 504.138 369.479 505.138 371.231C506.139 372.983 507.616 374.44 509.412 375.445L627.265 441.564C629.812 442.995 632.836 443.425 635.706 442.764C638.575 442.103 641.068 440.401 642.664 438.015L671.308 395.179" fill="#A1482D"/>
<path d="M830.397 222.221L433.881 2.525C431.161 1.02105 428.078 0.231325 424.94 0.234998C421.803 0.238672 418.722 1.03562 416.005 2.54593C413.289 4.05624 411.033 6.22684 409.464 8.84008C407.895 11.4533 407.068 14.4174 407.066 17.435V245.987C407.066 251.096 409.897 255.816 414.495 258.373L837.219 493.002C838.677 493.814 840.332 494.241 842.016 494.241C843.701 494.242 845.355 493.816 846.814 493.006C848.273 492.195 849.484 491.03 850.325 489.627C851.166 488.223 851.609 486.632 851.607 485.012V257.4C851.601 250.26 849.636 243.247 845.911 237.071C842.186 230.894 836.833 225.772 830.393 222.221H830.397Z" fill="#F47B56"/>
<path d="M433.906 19.8088L818.448 232.534C822.554 234.807 825.965 238.081 828.337 242.025C830.71 245.97 831.959 250.446 831.961 255.002V426.32C831.958 427.96 831.508 429.57 830.655 430.99C829.802 432.41 828.577 433.59 827.102 434.411C825.627 435.233 823.953 435.668 822.248 435.673C820.544 435.677 818.867 435.252 817.387 434.438L425.222 218.164C423.755 217.355 422.535 216.187 421.687 214.779C420.839 213.371 420.393 211.773 420.393 210.145V27.3392C420.393 25.8176 420.808 24.3225 421.598 23.004C422.387 21.6855 423.524 20.5898 424.892 19.827C426.261 19.0641 427.815 18.6609 429.397 18.6577C430.979 18.6545 432.534 19.0515 433.906 19.8088V19.8088Z" fill="white"/>
<path d="M595.706 342.947C600.241 342.107 603.109 337.386 602.111 332.402C601.113 327.418 596.628 324.059 592.093 324.899C587.558 325.739 584.691 330.46 585.688 335.444C586.686 340.428 591.171 343.787 595.706 342.947Z" fill="#AB643C"/>
<path opacity="0.32" d="M537.264 252.244L715.966 355.482L804.246 306.135L646.515 217.858" fill="url(#paint3_linear)"/>
<path d="M758.102 231.693L564.901 118.423C563.867 117.848 562.691 117.55 561.497 117.56C560.303 117.57 559.133 117.887 558.109 118.478C557.085 119.069 556.244 119.914 555.674 120.923C555.104 121.933 554.826 123.07 554.867 124.218V188.753C554.859 189.921 555.165 191.071 555.756 192.092C556.346 193.112 557.202 193.968 558.239 194.576L751.412 305.449C752.427 306.003 753.577 306.291 754.744 306.284C755.912 306.276 757.057 305.974 758.065 305.407C759.073 304.841 759.909 304.029 760.488 303.054C761.068 302.079 761.371 300.975 761.367 299.851L762.374 239.684C762.449 238.109 762.094 236.543 761.344 235.141C760.595 233.739 759.477 232.55 758.102 231.693V231.693Z" fill="#E2AC00"/>
<path d="M711.88 264.903C718.81 274.223 730.994 276.828 739.067 270.75C747.136 264.676 748.064 252.192 741.135 242.899C734.205 233.61 722.021 230.978 713.948 237.056C705.879 243.129 704.95 255.59 711.88 264.907V264.903Z" fill="white"/>
<path d="M692.922 220.181L614.123 174.561C613.448 174.264 612.681 174.218 611.972 174.432C611.264 174.647 610.663 175.107 610.286 175.723C609.91 176.339 609.784 177.067 609.934 177.767C610.084 178.467 610.499 179.089 611.098 179.512L689.897 225.131C690.573 225.429 691.339 225.475 692.048 225.26C692.756 225.046 693.357 224.586 693.734 223.97C694.11 223.354 694.236 222.625 694.086 221.925C693.936 221.225 693.521 220.604 692.922 220.181V220.181ZM689.683 238.715L581.071 175.836C580.406 175.611 579.679 175.619 579.019 175.858C578.359 176.097 577.807 176.552 577.462 177.144C577.116 177.735 576.998 178.425 577.128 179.091C577.258 179.758 577.628 180.36 578.174 180.79L686.657 243.693C687.334 243.996 688.103 244.045 688.816 243.831C689.528 243.618 690.132 243.157 690.51 242.538C690.888 241.919 691.012 241.187 690.859 240.485C690.706 239.782 690.287 239.16 689.683 238.739V238.715Z" fill="#F2F2F2"/>
<path d="M719.552 244.201L526.458 130.959C525.424 130.383 524.248 130.084 523.053 130.094C521.858 130.103 520.688 130.42 519.663 131.011C518.639 131.603 517.798 132.447 517.227 133.457C516.657 134.467 516.378 135.606 516.421 136.755V201.261C516.392 203.643 517.659 205.862 519.764 207.109L712.94 317.981C713.966 318.547 715.13 318.841 716.313 318.833C717.495 318.824 718.654 318.513 719.67 317.931C720.687 317.349 721.524 316.517 722.096 315.522C722.667 314.526 722.954 313.402 722.925 312.265L723.932 252.089C723.976 250.521 723.595 248.97 722.828 247.587C722.06 246.204 720.931 245.037 719.552 244.201Z" fill="#F47B56"/>
<path d="M673.33 277.415C680.26 286.732 692.444 289.336 700.517 283.262C708.586 277.189 709.515 264.7 702.585 255.407C695.655 246.118 683.471 243.486 675.398 249.564C667.329 255.637 666.4 268.098 673.33 277.415Z" fill="white"/>
<path d="M654.373 232.689L575.516 187.07C574.839 186.767 574.07 186.718 573.358 186.932C572.645 187.145 572.041 187.606 571.663 188.225C571.285 188.844 571.161 189.576 571.314 190.278C571.467 190.981 571.886 191.603 572.491 192.024L651.29 237.643C651.967 237.946 652.736 237.995 653.449 237.781C654.161 237.568 654.765 237.107 655.143 236.488C655.521 235.869 655.645 235.137 655.492 234.435C655.339 233.732 654.92 233.11 654.315 232.689H654.369H654.373ZM651.108 251.35L542.518 188.372C541.841 188.069 541.072 188.02 540.359 188.234C539.647 188.447 539.043 188.908 538.665 189.527C538.287 190.146 538.163 190.878 538.316 191.58C538.469 192.283 538.888 192.905 539.492 193.326L648.108 256.201C648.784 256.504 649.554 256.553 650.266 256.34C650.979 256.126 651.583 255.665 651.961 255.046C652.338 254.427 652.463 253.695 652.31 252.993C652.157 252.29 651.738 251.668 651.133 251.247L651.108 251.35Z" fill="#F2F2F2"/>
<path d="M671.097 251.811L477.953 138.565C476.919 137.989 475.743 137.69 474.548 137.699C473.353 137.709 472.183 138.025 471.158 138.617C470.134 139.209 469.293 140.053 468.722 141.063C468.152 142.073 467.873 143.212 467.916 144.36V208.871C467.908 210.039 468.214 211.188 468.805 212.208C469.396 213.228 470.251 214.083 471.288 214.691L664.46 325.563C665.486 326.13 666.65 326.424 667.832 326.415C669.015 326.406 670.174 326.095 671.19 325.513C672.207 324.931 673.044 324.099 673.615 323.104C674.187 322.108 674.473 320.984 674.444 319.847L675.451 259.671C675.538 256.495 673.883 253.514 671.097 251.811V251.811Z" fill="#68E1FD"/>
<path d="M671.097 251.811L477.953 138.565C476.919 137.989 475.743 137.69 474.548 137.699C473.353 137.709 472.183 138.025 471.158 138.617C470.134 139.209 469.293 140.053 468.722 141.063C468.152 142.073 467.873 143.212 467.916 144.36V208.871C467.908 210.039 468.214 211.188 468.805 212.208C469.396 213.228 470.251 214.083 471.288 214.691L664.46 325.563C665.486 326.13 666.65 326.424 667.832 326.415C669.015 326.406 670.174 326.095 671.19 325.513C672.207 324.931 673.044 324.099 673.615 323.104C674.187 322.108 674.473 320.984 674.444 319.847L675.451 259.671C675.538 256.495 673.883 253.514 671.097 251.811V251.811Z" fill="#68E1FD"/>
<path d="M624.85 285.021C631.78 294.342 643.964 296.946 652.037 290.868C660.106 284.795 661.035 272.31 654.105 263.017C647.179 253.728 634.991 251.096 626.922 257.17C618.849 263.243 617.998 275.708 624.85 285.021V285.021Z" fill="white"/>
<path d="M605.893 240.295L527.069 194.68C526.392 194.373 525.621 194.321 524.906 194.534C524.191 194.746 523.585 195.208 523.206 195.828C522.826 196.448 522.702 197.182 522.856 197.886C523.01 198.59 523.432 199.214 524.04 199.634L602.839 245.253C603.516 245.559 604.288 245.611 605.002 245.399C605.717 245.186 606.323 244.725 606.703 244.104C607.082 243.484 607.207 242.75 607.052 242.046C606.898 241.342 606.476 240.719 605.869 240.299H605.893V240.295ZM602.629 258.857L494.013 195.978C493.337 195.675 492.567 195.626 491.855 195.839C491.142 196.053 490.538 196.514 490.16 197.133C489.783 197.752 489.658 198.484 489.811 199.186C489.964 199.889 490.383 200.511 490.988 200.932L599.599 263.811C600.276 264.117 601.048 264.169 601.762 263.957C602.477 263.744 603.083 263.283 603.463 262.663C603.842 262.042 603.967 261.308 603.812 260.604C603.658 259.9 603.236 259.277 602.629 258.857Z" fill="#F2F2F2"/>
<path d="M417.603 245.479C405.123 255.808 395.683 269.11 390.231 284.052C380.622 309.577 404.648 351.294 404.648 351.294L442.029 322.832" fill="#FF8F6F"/>
<path d="M413.571 582.99L403.426 577.604L406.084 563.666C406.084 563.666 421.19 565.044 422.515 570.2" fill="#003B94"/>
<path d="M417.286 582.784C419.568 581.434 421.958 580.231 424.323 579.033C430.188 575.944 438.657 572.753 442.268 566.957C443.008 565.785 443.359 564.424 443.273 563.056C443.187 561.688 442.67 560.377 441.79 559.299C436.482 553.123 424.851 563.281 418.908 556.441C417.74 555.088 417.178 533.616 417.178 533.616L394.56 539.491C394.56 539.491 390.738 582.633 391.163 585.289C391.584 587.94 399.365 590.394 399.365 590.394C401.682 589.921 403.894 589.057 405.898 587.841C408.259 586.182 406.109 565.937 409.134 568.771C412.163 571.605 413.488 582.685 413.488 582.685C414.747 582.867 416.023 582.899 417.286 582.784V582.784Z" fill="#F47B56"/>
<path d="M456.764 603.847L446.623 598.535L449.277 584.598C449.277 584.598 464.383 585.976 465.712 591.132" fill="#003B94"/>
<path d="M460.589 603.64C462.872 602.291 465.262 601.088 467.622 599.889C473.492 596.801 481.961 593.609 485.572 587.813C486.312 586.642 486.662 585.281 486.577 583.913C486.491 582.545 485.974 581.234 485.094 580.156C479.782 573.979 468.155 584.138 462.207 577.298C461.039 575.944 460.482 554.472 460.482 554.472L437.864 560.347C437.864 560.347 434.013 603.64 434.439 606.197C434.86 608.749 442.64 611.302 442.64 611.302C444.957 610.829 447.169 609.965 449.173 608.749C451.534 607.09 449.384 586.845 452.409 589.679C455.439 592.514 456.763 603.593 456.763 603.593C458.03 603.759 459.318 603.775 460.589 603.64Z" fill="#F47B56"/>
<path d="M383.065 463.595L376.4 549.292C376.4 549.292 387.019 563.384 422.626 555.548L422.969 497.778L383.065 463.595ZM424.19 480.573C423.419 487.949 424.19 569.335 424.19 569.335C424.19 569.335 434.038 587.047 476.917 569.335L476.307 500.176" fill="#3E2928"/>
<path d="M379.747 491.903C382.665 493.848 383.676 483.864 386.726 485.575C397.835 491.778 409.625 496.778 421.879 500.481H422.143C422.436 500.345 422.753 500.266 423.078 500.25C423.402 500.235 423.727 500.282 424.032 500.389C424.337 500.497 424.616 500.662 424.854 500.876C425.091 501.089 425.281 501.347 425.412 501.632C432.982 503.804 440.683 505.507 448.484 506.737C458.489 508.27 466.772 501.144 477.045 500.664C477.045 462.829 477.235 355.149 460.482 332.172L410.913 316.143C410.673 320.073 386.859 346.622 387.445 378.994C388.105 415.475 383.169 449.884 382.318 461.297C382.186 463.238 379.85 489.839 379.747 491.903V491.903Z" fill="#3E2928"/>
<path d="M465.047 288.673L460.482 332.073C460.482 332.073 423.501 333.502 407.569 322.931V286.12" fill="#FF8F6F"/>
<path d="M512.066 260.107L508.298 265.057C510.307 261.029 512.079 256.896 513.606 252.676C514.67 249.794 509.862 248.643 508.801 251.529L508.244 253.01C508.706 251.477 509.14 249.937 509.544 248.389C509.633 248.082 509.656 247.762 509.614 247.447C509.571 247.131 509.464 246.827 509.297 246.552C509.13 246.278 508.908 246.038 508.644 245.847C508.379 245.656 508.077 245.518 507.757 245.441C507.436 245.364 507.102 245.35 506.775 245.399C506.449 245.448 506.135 245.56 505.854 245.727C505.573 245.895 505.33 246.115 505.138 246.374C504.947 246.634 504.811 246.927 504.74 247.238C503.699 251.245 502.449 255.2 500.996 259.087C501.808 255.637 502.394 252.14 502.751 248.619C503.068 245.582 498.103 245.709 497.81 248.619C497.397 252.629 496.655 256.598 495.581 260.488C495.58 259.118 495.446 257.75 495.181 256.404C495.145 256.065 495.034 255.738 494.856 255.443C494.678 255.149 494.437 254.894 494.149 254.697C494.014 254.161 493.855 253.631 493.67 253.109C493.482 252.574 493.104 252.12 492.603 251.826C492.101 251.533 491.508 251.418 490.928 251.504C490.347 251.589 489.817 251.868 489.429 252.293C489.041 252.717 488.822 253.259 488.808 253.823L488.491 271.695C487.591 273.549 486.423 275.267 485.015 276.804C487.401 278.392 489.708 280.098 491.916 281.909C493.889 283.508 495.767 285.215 497.546 287.014C499.139 285.108 500.67 283.167 502.14 281.194C502.321 281.045 502.481 280.872 502.614 280.682C507.037 274.389 511.606 268.192 516.317 262.096C518.282 260.004 513.952 257.682 512.066 260.107V260.107Z" fill="#FFB5A9"/>
<path d="M441.579 249.103C441.579 249.103 459.05 253.621 466.137 264.422C470.576 271.895 474.488 279.647 477.846 287.625L490.748 268.352C490.748 268.352 506.412 272.973 512.623 280.376C512.623 280.376 494.042 319.438 477.846 322.78C461.651 326.123 444.448 299.855 444.448 299.855C444.448 299.855 440.89 310.831 441.579 299.113" fill="#FF8F6F"/>
<path d="M452.677 290.844C447.599 286.872 443.765 281.623 441.604 275.68C439.507 268.813 442.136 262.787 444.575 256.404C447.22 250.078 448.764 243.376 449.144 236.567C449.359 229.882 448.562 223.19 448.084 216.529C448.016 216.244 448.016 215.948 448.084 215.663C445.747 208.129 440.968 201.75 431.541 200.983C407.144 198.991 405.762 224.98 405.951 235.547C406.133 246.118 407.305 253.264 399.207 257.682C391.109 262.096 385.265 273.687 392.992 283.056C400.718 292.424 393.788 289.006 388.637 297.327C383.49 305.651 384.815 316.04 395.381 319.795C405.947 323.546 455.063 316.5 459.578 312.133C461.181 310.375 462.009 308.086 461.89 305.75C460.787 299.876 457.516 294.583 452.677 290.844Z" fill="#007F68"/>
<path d="M476.678 76.5033C480.814 82.2263 483.204 88.9469 483.579 95.9069C484.041 99.0935 483.235 102.33 481.322 104.97C480.507 105.83 479.418 106.406 478.226 106.605C477.034 106.804 475.807 106.616 474.739 106.069C473.396 105.554 472.183 104.769 471.181 103.767C470.28 102.955 469.511 102.018 468.898 100.988L468.263 99.7892C468.089 100.103 467.875 100.393 467.623 100.655C466.992 101.131 466.24 101.437 465.448 101.548C464.119 101.786 462.749 101.627 461.519 101.091C458.583 99.87 456.141 97.7632 454.56 95.0892C452.656 92.1858 451.593 88.846 451.481 85.4151C451.089 82.6364 451.993 79.8338 453.949 77.7537C454.791 76.9733 455.862 76.4615 457.017 76.2882C458.173 76.1148 459.355 76.2884 460.404 76.7851C461.469 77.194 462.447 77.7815 463.293 78.5238C464.02 79.1153 464.664 79.7941 465.208 80.5404L465.687 81.3582V79.0836L470.995 81.0763L471.527 95.4226C471.565 96.4508 471.895 97.4471 472.481 98.3086C472.98 99.1382 473.744 99.7892 474.66 100.174C477.227 101.143 478.412 99.0152 478.218 93.7871C477.95 88.6126 476.173 83.615 473.092 79.3654C470.321 75.0416 466.206 71.6666 461.329 69.7192C459.56 68.8546 457.561 68.5211 455.593 68.7617C453.624 69.0024 451.776 69.8061 450.288 71.0688C448.702 72.6007 447.494 74.456 446.754 76.4974C446.014 78.5389 445.76 80.7143 446.012 82.8627C446.316 88.3359 448.151 93.6287 451.324 98.1815C453.849 102.678 457.828 106.262 462.658 108.391C464.342 109.066 466.145 109.404 467.97 109.384C469.154 109.463 470.343 109.253 471.42 108.773L472.481 108.213L475.696 113.957L475.164 114.314C474.66 114.584 474.136 114.826 473.595 115.029C472.749 115.382 471.858 115.624 470.941 115.743C469.77 115.894 468.584 115.894 467.412 115.743C465.874 115.566 464.365 115.197 462.926 114.644C458.838 112.954 455.206 110.387 452.306 107.141C448.871 103.488 446.09 99.3124 444.076 94.7835C442.06 90.4597 440.906 85.8099 440.675 81.0763C440.39 77.0969 441.234 73.1177 443.119 69.5644C444.684 66.5819 447.385 64.2954 450.66 63.1812C454.09 62.0942 457.819 62.2753 461.118 63.6893C467.561 66.3076 472.998 70.7868 476.678 76.5073V76.5033ZM464.969 94.6565C465.84 93.5847 466.232 92.2271 466.059 90.8774C466.017 89.213 465.532 87.5867 464.651 86.1535C463.931 84.9027 462.8 83.916 461.436 83.347C460.914 83.0887 460.322 82.9896 459.739 83.0626C459.157 83.1356 458.612 83.3774 458.175 83.7558C457.716 84.2567 457.374 84.8465 457.172 85.4854C456.97 86.1243 456.912 86.7975 457.003 87.4595C457.065 89.1426 457.585 90.7781 458.518 92.2072C459.282 93.5013 460.466 94.5255 461.89 95.117C462.91 95.6211 464.152 95.4345 464.969 94.6565V94.6565ZM790.147 352.93C794.288 358.648 796.679 365.369 797.048 372.329C797.511 375.515 796.706 378.752 794.794 381.392C793.978 382.25 792.888 382.824 791.696 383.023C790.504 383.222 789.277 383.035 788.207 382.491C786.869 381.969 785.657 381.185 784.649 380.189C783.754 379.373 782.985 378.437 782.367 377.41L781.731 376.212C781.551 376.521 781.336 376.811 781.092 377.077C780.464 377.553 779.713 377.867 778.917 377.97C777.6 378.224 776.234 378.073 775.012 377.537C772.074 376.309 769.633 374.194 768.057 371.511C766.136 368.606 765.062 365.256 764.95 361.814C764.541 359.035 765.445 356.224 767.422 354.152C768.259 353.375 769.324 352.865 770.474 352.692C771.623 352.518 772.8 352.69 773.844 353.184C774.909 353.588 775.891 354.176 776.737 354.918C777.464 355.522 778.103 356.208 778.652 356.963L779.156 357.776V355.506L784.464 357.471L784.996 371.817C785.042 372.845 785.372 373.842 785.95 374.703C786.449 375.537 787.213 376.188 788.129 376.569C790.783 377.537 791.872 375.418 791.711 370.186C791.442 365.003 789.668 359.997 786.589 355.736C783.82 351.428 779.716 348.063 774.855 346.114C773.087 345.248 771.09 344.912 769.121 345.148C767.153 345.385 765.303 346.183 763.81 347.44C762.232 348.989 761.038 350.861 760.316 352.916C759.594 354.971 759.364 357.156 759.642 359.309C759.939 364.783 761.773 370.077 764.95 374.628C767.575 379.018 771.597 382.482 776.424 384.508C778.103 385.183 779.907 385.528 781.731 385.528C782.916 385.596 784.101 385.385 785.182 384.913L786.243 384.353L789.458 390.097L788.921 390.455C788.422 390.728 787.898 390.967 787.357 391.169C786.505 391.507 785.614 391.747 784.703 391.884C783.522 392.034 782.326 392.034 781.145 391.884C779.615 391.697 778.117 391.32 776.688 390.76C772.602 389.077 768.97 386.519 766.068 383.281C762.63 379.62 759.847 375.434 757.834 370.896C755.818 366.574 754.665 361.925 754.437 357.193C754.149 353.221 754.994 349.249 756.881 345.705C758.449 342.718 761.147 340.424 764.421 339.294C767.863 338.22 771.595 338.404 774.905 339.81C781.273 342.564 786.597 347.147 790.147 352.93V352.93ZM778.438 371.079C779.317 370.011 779.717 368.653 779.552 367.3C779.506 365.633 779.013 364.005 778.12 362.576C777.413 361.325 776.291 360.337 774.934 359.769C774.413 359.507 773.822 359.403 773.239 359.472C772.656 359.541 772.108 359.779 771.669 360.154C771.203 360.651 770.854 361.239 770.648 361.878C770.441 362.516 770.381 363.191 770.472 363.854C770.534 365.529 771.058 367.161 771.987 368.578C772.75 369.88 773.935 370.912 775.359 371.515C775.854 371.764 776.419 371.855 776.972 371.777C777.525 371.698 778.038 371.454 778.438 371.079" fill="#F47B56"/>
<path style="mix-blend-mode:multiply" opacity="0.25" d="M261.069 461.781L171.2 412.613L81.3555 461.884C81.3555 461.884 131.35 491.903 176.082 517.126C204.491 497.826 229.738 475.746 261.069 461.781V461.781Z" fill="url(#paint4_linear)"/>
<g filter="url(#filter0_d)">
<path d="M98.7649 323.645V430.568L185.373 478.271L283.167 422.644V315.726" fill="black"/>
</g>
<path d="M98.7649 323.645V430.568L185.373 478.271L283.167 422.644V315.726" fill="#FF9271"/>
<path d="M185.373 371.353V478.275L283.167 422.648V315.726L185.373 371.353Z" fill="#DF5C34"/>
<path d="M98.7649 323.645L199.254 268.555L283.163 315.726L185.373 371.353L98.7649 323.645Z" fill="#F47B56"/>
<path d="M187.672 293.095C197.862 292.434 208.036 294.589 216.993 299.308C222.123 302.209 224.926 305.238 225.322 308.398C225.718 311.554 224.026 314.301 220.035 316.615C218.141 317.74 216.055 318.533 213.873 318.957C212.081 319.366 210.241 319.549 208.4 319.493L206.39 319.342C206.58 319.775 206.703 320.228 206.761 320.692C206.699 321.791 206.334 322.854 205.705 323.773C204.656 325.479 203.162 326.893 201.371 327.869C197.193 330.257 192.404 331.474 187.544 331.382C182.516 331.513 177.547 330.307 173.185 327.897C169.062 325.555 166.949 322.804 166.788 319.648C166.804 317.977 167.308 316.344 168.243 314.935C169.178 313.526 170.506 312.399 172.075 311.681C173.582 310.777 175.222 310.098 176.941 309.668C178.31 309.288 179.72 309.058 181.143 308.982H182.6L179.954 307.453L187.383 302.999L204.594 312.749C205.91 313.43 207.382 313.787 208.876 313.787C210.371 313.787 211.843 313.43 213.159 312.749C216.807 310.562 215.503 307.684 209.246 304.119C202.596 300.596 195.037 298.979 187.462 299.458C179.433 299.553 171.579 301.725 164.724 305.746C158.488 309.498 155.396 313.971 155.446 319.164C155.446 324.257 158.748 328.786 165.174 332.426C172.19 336.197 180.152 338.024 188.176 337.698C196.167 337.825 204.039 335.815 210.913 331.894C213.292 330.537 215.424 328.817 217.228 326.801C218.438 325.571 219.341 324.09 219.874 322.474L220.245 320.871L230.052 321.403C230.068 321.692 230.068 321.982 230.052 322.272C229.874 323.05 229.635 323.816 229.338 324.562C228.913 325.753 228.347 326.905 227.646 327.972C226.639 329.417 225.471 330.751 224.158 331.942C222.425 333.55 220.526 334.967 218.475 336.17C212.572 339.577 206.035 341.843 199.229 342.839C191.812 344.085 184.238 344.213 176.78 343.22C170.001 342.452 163.448 340.393 157.505 337.162C152.709 334.718 148.869 330.841 146.564 326.115C145.622 324.053 145.135 321.825 145.135 319.573C145.135 317.32 145.622 315.093 146.564 313.031C148.848 308.217 152.65 304.217 157.431 301.598C166.539 296.214 176.983 293.277 187.672 293.095V293.095ZM197.297 319.418C197.124 318.548 196.733 317.731 196.157 317.04C195.582 316.348 194.84 315.802 193.995 315.448C191.911 314.268 189.538 313.644 187.119 313.642C184.873 313.56 182.65 314.107 180.722 315.218C179.137 315.96 178.117 317.493 178.08 319.188C178.32 320.954 179.504 322.47 181.196 323.185C183.326 324.356 185.748 324.946 188.201 324.892C190.558 324.949 192.885 324.367 194.916 323.213C196.455 322.538 197.433 321.045 197.405 319.418" fill="#3E2928"/>
<defs>
<filter id="filter0_d" x="48.7649" y="290.726" width="284.402" height="262.545" filterUnits="userSpaceOnUse" color-interpolation-filters="sRGB">
<feFlood flood-opacity="0" result="BackgroundImageFix"/>
<feColorMatrix in="SourceAlpha" type="matrix" values="0 0 0 0 0 0 0 0 0 0 0 0 0 0 0 0 0 0 127 0"/>
<feOffset dy="25"/>
<feGaussianBlur stdDeviation="25"/>
<feColorMatrix type="matrix" values="0 0 0 0 0.209139 0 0 0 0 0.0691446 0 0 0 0 0.478091 0 0 0 0.497159 0"/>
<feBlend mode="normal" in2="BackgroundImageFix" result="effect1_dropShadow"/>
<feBlend mode="normal" in="SourceGraphic" in2="effect1_dropShadow" result="shape"/>
</filter>
<linearGradient id="paint0_linear" x1="568.059" y1="404.606" x2="540.626" y2="443.25" gradientUnits="userSpaceOnUse">
<stop stop-color="#78B46A"/>
<stop offset="0.03" stop-color="#7F3500"/>
<stop offset="1" stop-color="white"/>
</linearGradient>
<linearGradient id="paint1_linear" x1="461.198" y1="568.741" x2="403.171" y2="634.878" gradientUnits="userSpaceOnUse">
<stop stop-color="#78B46A"/>
<stop offset="0.03" stop-color="#7F3500"/>
<stop offset="1" stop-color="white"/>
</linearGradient>
<linearGradient id="paint2_linear" x1="329.515" y1="300.661" x2="286.026" y2="350.238" gradientUnits="userSpaceOnUse">
<stop stop-color="#78B46A"/>
<stop offset="0.03" stop-color="#7F3500"/>
<stop offset="1" stop-color="white"/>
</linearGradient>
<linearGradient id="paint3_linear" x1="753.562" y1="301.201" x2="727.071" y2="281.121" gradientUnits="userSpaceOnUse">
<stop stop-color="white" stop-opacity="0"/>
<stop offset="0.99" stop-color="#DC841E"/>
</linearGradient>
<linearGradient id="paint4_linear" x1="229.049" y1="441.461" x2="170.179" y2="508.564" gradientUnits="userSpaceOnUse">
<stop stop-color="#78B46A"/>
<stop offset="0.03" stop-color="#7F3500"/>
<stop offset="1" stop-color="white"/>
</linearGradient>
</defs>
</svg>
